<mxfile host="Electron" modified="2024-01-26T12:22:23.433Z" agent="Mozilla/5.0 (Windows NT 10.0; Win64; x64) AppleWebKit/537.36 (KHTML, like Gecko) draw.io/22.1.16 Chrome/120.0.6099.109 Electron/28.1.0 Safari/537.36" etag="Hh5jRvCr3gcQQF7H_3qr" version="22.1.16" type="device">
  <diagram id="kgpKYQtTHZ0yAKxKKP6v" name="Page-1">
    <mxGraphModel dx="915" dy="658" grid="0" gridSize="10" guides="1" tooltips="1" connect="1" arrows="1" fold="1" page="1" pageScale="1" pageWidth="1169" pageHeight="827" math="0" shadow="0">
      <root>
        <mxCell id="0" />
        <mxCell id="1" parent="0" />
        <mxCell id="Keovx6AUSpHvrn1oEmUN-50" value="" style="endArrow=none;dashed=1;html=1;rounded=0;fontFamily=Verdana;fontSize=16;" parent="1" target="Keovx6AUSpHvrn1oEmUN-20" edge="1">
          <mxGeometry width="50" height="50" relative="1" as="geometry">
            <mxPoint x="260" y="700" as="sourcePoint" />
            <mxPoint x="480" y="690" as="targetPoint" />
            <Array as="points">
              <mxPoint x="260" y="760" />
              <mxPoint x="550" y="760" />
            </Array>
          </mxGeometry>
        </mxCell>
        <mxCell id="Keovx6AUSpHvrn1oEmUN-51" value="hacerxxxxxxxxxxxx" style="edgeLabel;html=1;align=center;verticalAlign=middle;resizable=0;points=[];fontSize=10;fontFamily=Verdana;" parent="Keovx6AUSpHvrn1oEmUN-50" vertex="1" connectable="0">
          <mxGeometry x="-0.1256" y="-1" relative="1" as="geometry">
            <mxPoint as="offset" />
          </mxGeometry>
        </mxCell>
        <mxCell id="Keovx6AUSpHvrn1oEmUN-31" value="" style="html=1;shadow=0;dashed=0;align=center;verticalAlign=middle;shape=mxgraph.arrows2.arrow;dy=0.28;dx=0;notch=0;fillColor=#FFFFFF;" parent="1" vertex="1">
          <mxGeometry x="570" y="412" width="1122" height="16" as="geometry" />
        </mxCell>
        <mxCell id="Keovx6AUSpHvrn1oEmUN-24" value="" style="html=1;shadow=0;dashed=0;align=center;verticalAlign=middle;shape=mxgraph.arrows2.arrow;dy=0.67;dx=20;notch=0;fillColor=#FFFFFF;" parent="1" vertex="1">
          <mxGeometry x="110" y="665" width="5131" height="29" as="geometry" />
        </mxCell>
        <mxCell id="Keovx6AUSpHvrn1oEmUN-7" value="emisión de una&lt;br&gt;versión de prueba&lt;br&gt;de trabajo terminado" style="verticalLabelPosition=bottom;verticalAlign=top;html=1;shape=hexagon;perimeter=hexagonPerimeter2;arcSize=6;size=0.27;fillColor=#00FF00;" parent="1" vertex="1">
          <mxGeometry x="280" y="225" width="20" height="20" as="geometry" />
        </mxCell>
        <mxCell id="Keovx6AUSpHvrn1oEmUN-9" value="emisión de una &lt;br&gt;versión de prueba&lt;br&gt;de corrección de errores" style="verticalLabelPosition=bottom;verticalAlign=top;html=1;shape=hexagon;perimeter=hexagonPerimeter2;arcSize=6;size=0.27;fillColor=#FF8000;" parent="1" vertex="1">
          <mxGeometry x="430" y="225" width="20" height="20" as="geometry" />
        </mxCell>
        <mxCell id="Keovx6AUSpHvrn1oEmUN-11" value="1.1.p1&lt;br&gt;(1.1.p1.c0)" style="verticalLabelPosition=bottom;verticalAlign=top;html=1;shape=hexagon;perimeter=hexagonPerimeter2;arcSize=6;size=0.27;fillColor=#4D4D4D;" parent="1" vertex="1">
          <mxGeometry x="140" y="670" width="20" height="20" as="geometry" />
        </mxCell>
        <mxCell id="Keovx6AUSpHvrn1oEmUN-16" value="1.1.p2&lt;br&gt;(1.1.p2.c0)" style="verticalLabelPosition=bottom;verticalAlign=top;html=1;shape=hexagon;perimeter=hexagonPerimeter2;arcSize=6;size=0.27;fillColor=#4D4D4D;" parent="1" vertex="1">
          <mxGeometry x="200" y="670" width="20" height="20" as="geometry" />
        </mxCell>
        <mxCell id="Keovx6AUSpHvrn1oEmUN-17" value="1.1.p3&lt;br&gt;(1.1.p3.c0)" style="verticalLabelPosition=bottom;verticalAlign=top;html=1;shape=hexagon;perimeter=hexagonPerimeter2;arcSize=6;size=0.27;fillColor=#4D4D4D;" parent="1" vertex="1">
          <mxGeometry x="280" y="670" width="20" height="20" as="geometry" />
        </mxCell>
        <mxCell id="Keovx6AUSpHvrn1oEmUN-18" value="1.1.p4" style="verticalLabelPosition=bottom;verticalAlign=top;html=1;shape=hexagon;perimeter=hexagonPerimeter2;arcSize=6;size=0.27;fillColor=#00FF00;" parent="1" vertex="1">
          <mxGeometry x="330" y="670" width="20" height="20" as="geometry" />
        </mxCell>
        <mxCell id="Keovx6AUSpHvrn1oEmUN-19" value="1.1.p5&lt;br&gt;(1.1.p5.c0)" style="verticalLabelPosition=bottom;verticalAlign=top;html=1;shape=hexagon;perimeter=hexagonPerimeter2;arcSize=6;size=0.27;fillColor=#4D4D4D;" parent="1" vertex="1">
          <mxGeometry x="400" y="670" width="20" height="20" as="geometry" />
        </mxCell>
        <mxCell id="Keovx6AUSpHvrn1oEmUN-20" value="1.1.p8" style="verticalLabelPosition=bottom;verticalAlign=top;html=1;shape=hexagon;perimeter=hexagonPerimeter2;arcSize=6;size=0.27;fillColor=#00FF00;" parent="1" vertex="1">
          <mxGeometry x="540" y="670" width="20" height="20" as="geometry" />
        </mxCell>
        <mxCell id="Keovx6AUSpHvrn1oEmUN-21" value="1.1.p7" style="verticalLabelPosition=bottom;verticalAlign=top;html=1;shape=hexagon;perimeter=hexagonPerimeter2;arcSize=6;size=0.27;fillColor=#FF8000;" parent="1" vertex="1">
          <mxGeometry x="495" y="670" width="20" height="20" as="geometry" />
        </mxCell>
        <mxCell id="Keovx6AUSpHvrn1oEmUN-23" value="emisión de una&lt;br&gt;versión&lt;br&gt;de produción&lt;br&gt;para usuarios finales" style="verticalLabelPosition=bottom;verticalAlign=top;html=1;shape=hexagon;perimeter=hexagonPerimeter2;arcSize=6;size=0.27;fillColor=#FF66FF;" parent="1" vertex="1">
          <mxGeometry x="600" y="225" width="20" height="20" as="geometry" />
        </mxCell>
        <mxCell id="Keovx6AUSpHvrn1oEmUN-25" value="main" style="text;html=1;resizable=0;autosize=1;align=center;verticalAlign=middle;points=[];fillColor=none;strokeColor=none;rounded=0;fontFamily=Verdana;fontSize=22;fontStyle=1" parent="1" vertex="1">
          <mxGeometry x="30" y="665" width="80" height="30" as="geometry" />
        </mxCell>
        <mxCell id="Keovx6AUSpHvrn1oEmUN-26" value="release 1" style="text;html=1;resizable=0;autosize=1;align=center;verticalAlign=middle;points=[];fillColor=none;strokeColor=none;rounded=0;fontFamily=Verdana;fontSize=18;fontStyle=1" parent="1" vertex="1">
          <mxGeometry x="450" y="405" width="110" height="30" as="geometry" />
        </mxCell>
        <mxCell id="Keovx6AUSpHvrn1oEmUN-28" value="1.1&lt;br&gt;(1.1.p0.c0)" style="verticalLabelPosition=bottom;verticalAlign=top;html=1;shape=hexagon;perimeter=hexagonPerimeter2;arcSize=6;size=0.27;fillColor=#FF99FF;" parent="1" vertex="1">
          <mxGeometry x="590" y="410" width="20" height="20" as="geometry" />
        </mxCell>
        <mxCell id="Keovx6AUSpHvrn1oEmUN-61" style="edgeStyle=orthogonalEdgeStyle;rounded=0;orthogonalLoop=1;jettySize=auto;html=1;entryX=0.5;entryY=0;entryDx=0;entryDy=0;fontFamily=Verdana;fontSize=10;startArrow=classic;startFill=1;endArrow=none;endFill=0;strokeColor=#FF66FF;" parent="1" target="Keovx6AUSpHvrn1oEmUN-40" edge="1">
          <mxGeometry relative="1" as="geometry">
            <mxPoint x="600" y="475" as="sourcePoint" />
          </mxGeometry>
        </mxCell>
        <mxCell id="Keovx6AUSpHvrn1oEmUN-33" value="2.1.p1&lt;br&gt;(2.1.p1.c0)" style="verticalLabelPosition=bottom;verticalAlign=top;html=1;shape=hexagon;perimeter=hexagonPerimeter2;arcSize=6;size=0.27;fillColor=#4D4D4D;" parent="1" vertex="1">
          <mxGeometry x="700" y="670" width="20" height="20" as="geometry" />
        </mxCell>
        <mxCell id="Keovx6AUSpHvrn1oEmUN-34" value="2.1.p3" style="verticalLabelPosition=bottom;verticalAlign=top;html=1;shape=hexagon;perimeter=hexagonPerimeter2;arcSize=6;size=0.33142787388392775;fillColor=#FF8000;" parent="1" vertex="1">
          <mxGeometry x="840" y="670" width="20" height="20" as="geometry" />
        </mxCell>
        <mxCell id="Keovx6AUSpHvrn1oEmUN-60" style="edgeStyle=orthogonalEdgeStyle;rounded=0;orthogonalLoop=1;jettySize=auto;html=1;fontFamily=Verdana;fontSize=10;startArrow=classic;startFill=1;endArrow=classic;endFill=1;strokeColor=#FF9933;fillColor=#FF66FF;" parent="1" edge="1">
          <mxGeometry relative="1" as="geometry">
            <mxPoint x="850" y="665" as="targetPoint" />
            <mxPoint x="850" y="485" as="sourcePoint" />
          </mxGeometry>
        </mxCell>
        <mxCell id="Keovx6AUSpHvrn1oEmUN-39" value="1.2&lt;br&gt;(1.2.p0.c0)" style="verticalLabelPosition=bottom;verticalAlign=top;html=1;shape=hexagon;perimeter=hexagonPerimeter2;arcSize=6;size=0.27;fillColor=#FF99FF;" parent="1" vertex="1">
          <mxGeometry x="840" y="410" width="20" height="20" as="geometry" />
        </mxCell>
        <mxCell id="Keovx6AUSpHvrn1oEmUN-40" value="1.1&lt;br&gt;(1.1.p0.c0)" style="verticalLabelPosition=bottom;verticalAlign=top;html=1;shape=hexagon;perimeter=hexagonPerimeter2;arcSize=6;size=0.27;fillColor=#FF66FF;" parent="1" vertex="1">
          <mxGeometry x="590" y="670" width="20" height="20" as="geometry" />
        </mxCell>
        <mxCell id="Keovx6AUSpHvrn1oEmUN-41" value="2.1.p2&lt;br&gt;(2.1.p2.c0)" style="verticalLabelPosition=bottom;verticalAlign=top;html=1;shape=hexagon;perimeter=hexagonPerimeter2;arcSize=6;size=0.27;fillColor=#4D4D4D;" parent="1" vertex="1">
          <mxGeometry x="775" y="670" width="20" height="20" as="geometry" />
        </mxCell>
        <mxCell id="Keovx6AUSpHvrn1oEmUN-45" value="" style="endArrow=none;dashed=1;html=1;rounded=0;fontFamily=Verdana;fontSize=16;entryX=0.5;entryY=1;entryDx=0;entryDy=0;" parent="1" edge="1">
          <mxGeometry width="50" height="50" relative="1" as="geometry">
            <mxPoint x="644" y="446" as="sourcePoint" />
            <mxPoint x="849" y="470" as="targetPoint" />
            <Array as="points">
              <mxPoint x="644" y="510" />
              <mxPoint x="850" y="512" />
            </Array>
          </mxGeometry>
        </mxCell>
        <mxCell id="Keovx6AUSpHvrn1oEmUN-46" value="arreglar errorxxxx" style="edgeLabel;html=1;align=center;verticalAlign=middle;resizable=0;points=[];fontSize=10;fontFamily=Verdana;" parent="Keovx6AUSpHvrn1oEmUN-45" vertex="1" connectable="0">
          <mxGeometry x="-0.1256" y="-1" relative="1" as="geometry">
            <mxPoint as="offset" />
          </mxGeometry>
        </mxCell>
        <mxCell id="Keovx6AUSpHvrn1oEmUN-47" value="" style="endArrow=none;dashed=1;html=1;rounded=0;fontFamily=Verdana;fontSize=16;" parent="1" edge="1">
          <mxGeometry width="50" height="50" relative="1" as="geometry">
            <mxPoint x="120" y="700" as="sourcePoint" />
            <mxPoint x="340" y="680" as="targetPoint" />
            <Array as="points">
              <mxPoint x="120" y="740" />
              <mxPoint x="340" y="740" />
            </Array>
          </mxGeometry>
        </mxCell>
        <mxCell id="Keovx6AUSpHvrn1oEmUN-48" value="hacerxxxxxxxxxxxx" style="edgeLabel;html=1;align=center;verticalAlign=middle;resizable=0;points=[];fontSize=10;fontFamily=Verdana;" parent="Keovx6AUSpHvrn1oEmUN-47" vertex="1" connectable="0">
          <mxGeometry x="-0.1256" y="-1" relative="1" as="geometry">
            <mxPoint as="offset" />
          </mxGeometry>
        </mxCell>
        <mxCell id="Keovx6AUSpHvrn1oEmUN-52" value="rama de largo recorrido" style="html=1;shadow=0;dashed=0;align=center;verticalAlign=middle;shape=mxgraph.arrows2.arrow;dy=0.67;dx=20;notch=0;fillColor=#FFFFFF;fontFamily=Verdana;" parent="1" vertex="1">
          <mxGeometry x="680" y="55" width="460" height="45" as="geometry" />
        </mxCell>
        <mxCell id="Keovx6AUSpHvrn1oEmUN-53" value="" style="endArrow=none;dashed=1;html=1;rounded=0;fontFamily=Verdana;fontSize=16;" parent="1" edge="1">
          <mxGeometry width="50" height="50" relative="1" as="geometry">
            <mxPoint x="725" y="115" as="sourcePoint" />
            <mxPoint x="905" y="115" as="targetPoint" />
            <Array as="points">
              <mxPoint x="725" y="155" />
              <mxPoint x="905" y="155" />
            </Array>
          </mxGeometry>
        </mxCell>
        <mxCell id="Keovx6AUSpHvrn1oEmUN-54" value="rama de corto recorrido&lt;br&gt;(entendiendose por corto&lt;br&gt;&lt;div style=&quot;text-align: left;&quot;&gt;uno o dos días)&lt;/div&gt;" style="edgeLabel;html=1;align=center;verticalAlign=middle;resizable=0;points=[];fontSize=12;fontFamily=Verdana;" parent="Keovx6AUSpHvrn1oEmUN-53" vertex="1" connectable="0">
          <mxGeometry x="-0.1256" y="-1" relative="1" as="geometry">
            <mxPoint as="offset" />
          </mxGeometry>
        </mxCell>
        <mxCell id="Keovx6AUSpHvrn1oEmUN-63" value="2.1.p4" style="verticalLabelPosition=bottom;verticalAlign=top;html=1;shape=hexagon;perimeter=hexagonPerimeter2;arcSize=6;size=0.27;fillColor=#FF8000;" parent="1" vertex="1">
          <mxGeometry x="910" y="670" width="20" height="20" as="geometry" />
        </mxCell>
        <mxCell id="Keovx6AUSpHvrn1oEmUN-65" value="" style="endArrow=none;dashed=1;html=1;rounded=0;fontFamily=Verdana;fontSize=16;entryX=0.375;entryY=1;entryDx=0;entryDy=0;" parent="1" target="44cg_ZbRsS5MFosydUlh-187" edge="1">
          <mxGeometry width="50" height="50" relative="1" as="geometry">
            <mxPoint x="679" y="700" as="sourcePoint" />
            <mxPoint x="910" y="680" as="targetPoint" />
            <Array as="points">
              <mxPoint x="678" y="751" />
              <mxPoint x="958" y="750" />
            </Array>
          </mxGeometry>
        </mxCell>
        <mxCell id="Keovx6AUSpHvrn1oEmUN-66" value="hacerxxxxxxxxxxxx" style="edgeLabel;html=1;align=center;verticalAlign=middle;resizable=0;points=[];fontSize=10;fontFamily=Verdana;" parent="Keovx6AUSpHvrn1oEmUN-65" vertex="1" connectable="0">
          <mxGeometry x="-0.1256" y="-1" relative="1" as="geometry">
            <mxPoint as="offset" />
          </mxGeometry>
        </mxCell>
        <mxCell id="Keovx6AUSpHvrn1oEmUN-67" value="2.1.p8" style="verticalLabelPosition=bottom;verticalAlign=top;html=1;shape=hexagon;perimeter=hexagonPerimeter2;arcSize=6;size=0.27;fillColor=#00FF00;" parent="1" vertex="1">
          <mxGeometry x="1090" y="669.5" width="20" height="20" as="geometry" />
        </mxCell>
        <mxCell id="Keovx6AUSpHvrn1oEmUN-69" value="2.1.p9&lt;br&gt;(2.1.p9.c0)" style="verticalLabelPosition=bottom;verticalAlign=top;html=1;shape=hexagon;perimeter=hexagonPerimeter2;arcSize=6;size=0.27;fillColor=#FF8000;" parent="1" vertex="1">
          <mxGeometry x="1200" y="670" width="20" height="20" as="geometry" />
        </mxCell>
        <mxCell id="Keovx6AUSpHvrn1oEmUN-70" value="" style="endArrow=none;dashed=1;html=1;rounded=0;fontFamily=Verdana;fontSize=16;entryX=0.375;entryY=1;entryDx=0;entryDy=0;" parent="1" target="Keovx6AUSpHvrn1oEmUN-75" edge="1">
          <mxGeometry width="50" height="50" relative="1" as="geometry">
            <mxPoint x="889" y="694" as="sourcePoint" />
            <mxPoint x="1210" y="680" as="targetPoint" />
            <Array as="points">
              <mxPoint x="888" y="780" />
              <mxPoint x="1260" y="780" />
            </Array>
          </mxGeometry>
        </mxCell>
        <mxCell id="Keovx6AUSpHvrn1oEmUN-71" value="hacerxxxxxxxxxxxx" style="edgeLabel;html=1;align=center;verticalAlign=middle;resizable=0;points=[];fontSize=10;fontFamily=Verdana;" parent="Keovx6AUSpHvrn1oEmUN-70" vertex="1" connectable="0">
          <mxGeometry x="-0.1256" y="-1" relative="1" as="geometry">
            <mxPoint y="5" as="offset" />
          </mxGeometry>
        </mxCell>
        <mxCell id="Keovx6AUSpHvrn1oEmUN-72" value="2.1.p7&lt;br&gt;(2.1.p7.c0)" style="verticalLabelPosition=bottom;verticalAlign=top;html=1;shape=hexagon;perimeter=hexagonPerimeter2;arcSize=6;size=0.27;fillColor=#4D4D4D;" parent="1" vertex="1">
          <mxGeometry x="1030" y="669.5" width="20" height="20" as="geometry" />
        </mxCell>
        <mxCell id="Keovx6AUSpHvrn1oEmUN-75" value="2.1.p10" style="verticalLabelPosition=bottom;verticalAlign=top;html=1;shape=hexagon;perimeter=hexagonPerimeter2;arcSize=6;size=0.27;fillColor=#00FF00;" parent="1" vertex="1">
          <mxGeometry x="1250" y="669.5" width="20" height="20" as="geometry" />
        </mxCell>
        <mxCell id="Keovx6AUSpHvrn1oEmUN-76" value="" style="endArrow=none;dashed=1;html=1;rounded=0;fontFamily=Verdana;fontSize=16;entryX=0.5;entryY=1;entryDx=0;entryDy=0;" parent="1" target="Keovx6AUSpHvrn1oEmUN-67" edge="1">
          <mxGeometry width="50" height="50" relative="1" as="geometry">
            <mxPoint x="977" y="714" as="sourcePoint" />
            <mxPoint x="1319" y="689.5" as="targetPoint" />
            <Array as="points">
              <mxPoint x="977" y="740" />
              <mxPoint x="1100" y="740" />
            </Array>
          </mxGeometry>
        </mxCell>
        <mxCell id="Keovx6AUSpHvrn1oEmUN-77" value="hacerxxxxxxxxxxxx" style="edgeLabel;html=1;align=center;verticalAlign=middle;resizable=0;points=[];fontSize=10;fontFamily=Verdana;" parent="Keovx6AUSpHvrn1oEmUN-76" vertex="1" connectable="0">
          <mxGeometry x="-0.1256" y="-1" relative="1" as="geometry">
            <mxPoint x="14" y="7" as="offset" />
          </mxGeometry>
        </mxCell>
        <mxCell id="Keovx6AUSpHvrn1oEmUN-82" value="versión&amp;nbsp;&quot;de programador&quot;&lt;br&gt;nota: después de .c1 &lt;br&gt;se puede seguir incrementando&lt;br&gt;ese cuarto número .c&lt;br&gt;según le parezca&lt;br&gt;a la persona&lt;br&gt;que está programando" style="verticalLabelPosition=bottom;verticalAlign=top;html=1;shape=hexagon;perimeter=hexagonPerimeter2;arcSize=6;size=0.27;fillColor=#999999;align=left;" parent="1" vertex="1">
          <mxGeometry x="110" y="330" width="10" height="10" as="geometry" />
        </mxCell>
        <mxCell id="Keovx6AUSpHvrn1oEmUN-83" value="1.1.p2.c1" style="verticalLabelPosition=bottom;verticalAlign=top;html=1;shape=hexagon;perimeter=hexagonPerimeter2;arcSize=6;size=0.27;fillColor=#999999;fontSize=6;" parent="1" vertex="1">
          <mxGeometry x="160" y="675" width="10" height="10" as="geometry" />
        </mxCell>
        <mxCell id="Keovx6AUSpHvrn1oEmUN-92" value="1.1.p3.c1" style="verticalLabelPosition=bottom;verticalAlign=top;html=1;shape=hexagon;perimeter=hexagonPerimeter2;arcSize=6;size=0.27;fillColor=#999999;fontSize=6;" parent="1" vertex="1">
          <mxGeometry x="220" y="675" width="10" height="10" as="geometry" />
        </mxCell>
        <mxCell id="Keovx6AUSpHvrn1oEmUN-93" value="1.1.p3.c1" style="verticalLabelPosition=bottom;verticalAlign=top;html=1;shape=hexagon;perimeter=hexagonPerimeter2;arcSize=6;size=0.27;fillColor=#999999;fontSize=6;" parent="1" vertex="1">
          <mxGeometry x="255" y="675" width="10" height="10" as="geometry" />
        </mxCell>
        <mxCell id="Keovx6AUSpHvrn1oEmUN-94" value="1.1.p5.c1" style="verticalLabelPosition=bottom;verticalAlign=top;html=1;shape=hexagon;perimeter=hexagonPerimeter2;arcSize=6;size=0.27;fillColor=#999999;fontSize=6;" parent="1" vertex="1">
          <mxGeometry x="350" y="675" width="10" height="10" as="geometry" />
        </mxCell>
        <mxCell id="Keovx6AUSpHvrn1oEmUN-95" value="2.1.p1.c1" style="verticalLabelPosition=bottom;verticalAlign=top;html=1;shape=hexagon;perimeter=hexagonPerimeter2;arcSize=6;size=0.27;fillColor=#999999;fontSize=6;" parent="1" vertex="1">
          <mxGeometry x="610" y="675.5" width="10" height="10" as="geometry" />
        </mxCell>
        <mxCell id="Keovx6AUSpHvrn1oEmUN-102" value="2.1.p1.c1" style="verticalLabelPosition=bottom;verticalAlign=top;html=1;shape=hexagon;perimeter=hexagonPerimeter2;arcSize=6;size=0.36399902343749774;fillColor=#999999;fontSize=6;" parent="1" vertex="1">
          <mxGeometry x="674" y="675" width="10" height="10" as="geometry" />
        </mxCell>
        <mxCell id="Keovx6AUSpHvrn1oEmUN-104" value="2.1.p4.c1" style="verticalLabelPosition=bottom;verticalAlign=top;html=1;shape=hexagon;perimeter=hexagonPerimeter2;arcSize=6;size=0.27;fillColor=#999999;fontSize=6;" parent="1" vertex="1">
          <mxGeometry x="860" y="675" width="10" height="10" as="geometry" />
        </mxCell>
        <mxCell id="Keovx6AUSpHvrn1oEmUN-105" value="" style="endArrow=classic;html=1;rounded=0;fontFamily=Verdana;fontSize=11;strokeColor=#00FF00;" parent="1" edge="1">
          <mxGeometry x="0.4232" y="30" width="50" height="50" relative="1" as="geometry">
            <mxPoint x="679.35" y="620.5" as="sourcePoint" />
            <mxPoint x="678.6600000000001" y="670.5" as="targetPoint" />
            <mxPoint as="offset" />
          </mxGeometry>
        </mxCell>
        <mxCell id="Keovx6AUSpHvrn1oEmUN-106" value="" style="endArrow=none;dashed=1;html=1;rounded=0;fontFamily=Verdana;fontSize=16;entryX=0.5;entryY=1;entryDx=0;entryDy=0;" parent="1" target="Keovx6AUSpHvrn1oEmUN-21" edge="1">
          <mxGeometry width="50" height="50" relative="1" as="geometry">
            <mxPoint x="380" y="700" as="sourcePoint" />
            <mxPoint x="530" y="700" as="targetPoint" />
            <Array as="points">
              <mxPoint x="380" y="730" />
              <mxPoint x="503" y="730" />
            </Array>
          </mxGeometry>
        </mxCell>
        <mxCell id="Keovx6AUSpHvrn1oEmUN-107" value="arreglar errorxxxxx" style="edgeLabel;html=1;align=center;verticalAlign=middle;resizable=0;points=[];fontSize=10;fontFamily=Verdana;" parent="Keovx6AUSpHvrn1oEmUN-106" vertex="1" connectable="0">
          <mxGeometry x="-0.1256" y="-1" relative="1" as="geometry">
            <mxPoint as="offset" />
          </mxGeometry>
        </mxCell>
        <mxCell id="Keovx6AUSpHvrn1oEmUN-114" value="1.1.p6" style="verticalLabelPosition=bottom;verticalAlign=top;html=1;shape=hexagon;perimeter=hexagonPerimeter2;arcSize=6;size=0.27;fillColor=#4D4D4D;" parent="1" vertex="1">
          <mxGeometry x="453" y="669.5" width="20" height="20" as="geometry" />
        </mxCell>
        <mxCell id="Keovx6AUSpHvrn1oEmUN-125" value="" style="endArrow=none;dashed=1;html=1;rounded=0;fontFamily=Verdana;fontSize=16;" parent="1" edge="1">
          <mxGeometry width="50" height="50" relative="1" as="geometry">
            <mxPoint x="825" y="701" as="sourcePoint" />
            <mxPoint x="922" y="700.5" as="targetPoint" />
            <Array as="points">
              <mxPoint x="825" y="730" />
              <mxPoint x="922" y="729.5" />
            </Array>
          </mxGeometry>
        </mxCell>
        <mxCell id="Keovx6AUSpHvrn1oEmUN-126" value="arreglar errorxxxxx" style="edgeLabel;html=1;align=center;verticalAlign=middle;resizable=0;points=[];fontSize=10;fontFamily=Verdana;" parent="Keovx6AUSpHvrn1oEmUN-125" vertex="1" connectable="0">
          <mxGeometry x="-0.1256" y="-1" relative="1" as="geometry">
            <mxPoint x="10" y="5" as="offset" />
          </mxGeometry>
        </mxCell>
        <mxCell id="Keovx6AUSpHvrn1oEmUN-127" value="2.1.p11&lt;br&gt;(2.1.p11.c0)" style="verticalLabelPosition=bottom;verticalAlign=top;html=1;shape=hexagon;perimeter=hexagonPerimeter2;arcSize=6;size=0.27;fillColor=#FF8000;" parent="1" vertex="1">
          <mxGeometry x="1340" y="669" width="20" height="20" as="geometry" />
        </mxCell>
        <mxCell id="Keovx6AUSpHvrn1oEmUN-128" value="" style="endArrow=classic;html=1;rounded=0;fontFamily=Verdana;fontSize=11;strokeColor=#FF8000;" parent="1" edge="1">
          <mxGeometry width="50" height="50" relative="1" as="geometry">
            <mxPoint x="379.06" y="623.5" as="sourcePoint" />
            <mxPoint x="379.06000000000006" y="668.5" as="targetPoint" />
          </mxGeometry>
        </mxCell>
        <mxCell id="Keovx6AUSpHvrn1oEmUN-129" value="" style="endArrow=classic;html=1;rounded=0;fontFamily=Verdana;fontSize=11;strokeColor=#FF8000;" parent="1" edge="1">
          <mxGeometry x="-0.3333" y="-35" width="50" height="50" relative="1" as="geometry">
            <mxPoint x="644.8" y="363" as="sourcePoint" />
            <mxPoint x="644.8" y="408" as="targetPoint" />
            <mxPoint as="offset" />
          </mxGeometry>
        </mxCell>
        <mxCell id="Keovx6AUSpHvrn1oEmUN-131" value="" style="endArrow=classic;html=1;rounded=0;fontFamily=Verdana;fontSize=11;strokeColor=#00FF00;" parent="1" edge="1">
          <mxGeometry width="50" height="50" relative="1" as="geometry">
            <mxPoint x="260.0000000000002" y="630" as="sourcePoint" />
            <mxPoint x="260.30999999999995" y="670" as="targetPoint" />
          </mxGeometry>
        </mxCell>
        <mxCell id="Keovx6AUSpHvrn1oEmUN-132" value="" style="endArrow=classic;html=1;rounded=0;fontFamily=Verdana;fontSize=11;strokeColor=#00FF00;" parent="1" edge="1">
          <mxGeometry width="50" height="50" relative="1" as="geometry">
            <mxPoint x="120.00000000000023" y="630" as="sourcePoint" />
            <mxPoint x="120.30999999999995" y="670" as="targetPoint" />
          </mxGeometry>
        </mxCell>
        <mxCell id="Keovx6AUSpHvrn1oEmUN-133" value="" style="endArrow=classic;html=1;rounded=0;fontFamily=Verdana;fontSize=11;strokeColor=#00FF00;" parent="1" edge="1">
          <mxGeometry x="0.4017" y="7" width="50" height="50" relative="1" as="geometry">
            <mxPoint x="889" y="615" as="sourcePoint" />
            <mxPoint x="889.31" y="665" as="targetPoint" />
            <mxPoint as="offset" />
          </mxGeometry>
        </mxCell>
        <mxCell id="Keovx6AUSpHvrn1oEmUN-134" value="" style="endArrow=classic;html=1;rounded=0;fontFamily=Verdana;fontSize=11;strokeColor=#00FF00;" parent="1" edge="1">
          <mxGeometry x="0.2612" y="5" width="50" height="50" relative="1" as="geometry">
            <mxPoint x="974.8" y="615" as="sourcePoint" />
            <mxPoint x="975.1099999999999" y="665" as="targetPoint" />
            <mxPoint as="offset" />
          </mxGeometry>
        </mxCell>
        <mxCell id="Keovx6AUSpHvrn1oEmUN-135" value="" style="endArrow=classic;html=1;rounded=0;fontFamily=Verdana;fontSize=11;strokeColor=#FF8000;strokeWidth=2;" parent="1" edge="1">
          <mxGeometry width="50" height="50" relative="1" as="geometry">
            <mxPoint x="418.56999999999994" y="130" as="sourcePoint" />
            <mxPoint x="418.56999999999994" y="175" as="targetPoint" />
          </mxGeometry>
        </mxCell>
        <mxCell id="Keovx6AUSpHvrn1oEmUN-136" value="" style="endArrow=classic;html=1;rounded=0;fontFamily=Verdana;fontSize=11;strokeColor=#00FF00;strokeWidth=2;" parent="1" edge="1">
          <mxGeometry width="50" height="50" relative="1" as="geometry">
            <mxPoint x="270.0000000000002" y="130" as="sourcePoint" />
            <mxPoint x="270" y="180" as="targetPoint" />
          </mxGeometry>
        </mxCell>
        <mxCell id="Keovx6AUSpHvrn1oEmUN-137" value="se descubre&lt;br&gt;&lt;div style=&quot;text-align: left&quot;&gt;&lt;span&gt;un error&lt;/span&gt;&lt;/div&gt;" style="text;html=1;resizable=0;autosize=1;align=center;verticalAlign=middle;points=[];fillColor=none;strokeColor=none;rounded=0;fontFamily=Verdana;fontSize=11;" parent="1" vertex="1">
          <mxGeometry x="339.26" y="140" width="80" height="30" as="geometry" />
        </mxCell>
        <mxCell id="Keovx6AUSpHvrn1oEmUN-138" value="se comienza&lt;br&gt;un trabajo" style="text;html=1;resizable=0;autosize=1;align=left;verticalAlign=middle;points=[];fillColor=none;strokeColor=none;rounded=0;fontFamily=Verdana;fontSize=11;" parent="1" vertex="1">
          <mxGeometry x="172" y="134" width="86" height="38" as="geometry" />
        </mxCell>
        <mxCell id="Keovx6AUSpHvrn1oEmUN-139" value="1.5&lt;br&gt;1.5.p0.c0)" style="verticalLabelPosition=bottom;verticalAlign=top;html=1;shape=hexagon;perimeter=hexagonPerimeter2;arcSize=6;size=0.27;fillColor=#FF99FF;" parent="1" vertex="1">
          <mxGeometry x="1340" y="410" width="20" height="20" as="geometry" />
        </mxCell>
        <mxCell id="Keovx6AUSpHvrn1oEmUN-144" style="edgeStyle=orthogonalEdgeStyle;rounded=0;orthogonalLoop=1;jettySize=auto;html=1;fontFamily=Verdana;fontSize=18;startArrow=classic;startFill=1;endArrow=classic;endFill=1;strokeColor=#FF8000;fillColor=#FF66FF;" parent="1" edge="1">
          <mxGeometry relative="1" as="geometry">
            <mxPoint x="1000" y="662" as="targetPoint" />
            <mxPoint x="1000" y="484" as="sourcePoint" />
          </mxGeometry>
        </mxCell>
        <mxCell id="Keovx6AUSpHvrn1oEmUN-143" value="1.3&lt;br&gt;(1.3.p0.c0)" style="verticalLabelPosition=bottom;verticalAlign=top;html=1;shape=hexagon;perimeter=hexagonPerimeter2;arcSize=6;size=0.27;fillColor=#FF99FF;" parent="1" vertex="1">
          <mxGeometry x="990" y="410" width="20" height="20" as="geometry" />
        </mxCell>
        <mxCell id="Keovx6AUSpHvrn1oEmUN-145" value="1.4&lt;br&gt;(1.4.p0.c0)" style="verticalLabelPosition=bottom;verticalAlign=top;html=1;shape=hexagon;perimeter=hexagonPerimeter2;arcSize=6;size=0.27;fillColor=#FF99FF;" parent="1" vertex="1">
          <mxGeometry x="1195" y="410" width="20" height="20" as="geometry" />
        </mxCell>
        <mxCell id="Keovx6AUSpHvrn1oEmUN-147" value="" style="endArrow=none;dashed=1;html=1;rounded=0;fontFamily=Verdana;fontSize=16;entryX=0.5;entryY=1;entryDx=0;entryDy=0;" parent="1" target="Keovx6AUSpHvrn1oEmUN-155" edge="1">
          <mxGeometry width="50" height="50" relative="1" as="geometry">
            <mxPoint x="1169" y="700" as="sourcePoint" />
            <mxPoint x="1840" y="720" as="targetPoint" />
            <Array as="points">
              <mxPoint x="1169" y="770" />
              <mxPoint x="1670" y="770" />
            </Array>
          </mxGeometry>
        </mxCell>
        <mxCell id="Keovx6AUSpHvrn1oEmUN-148" value="hacerxxxxxxxxxxxx" style="edgeLabel;html=1;align=center;verticalAlign=middle;resizable=0;points=[];fontSize=10;fontFamily=Verdana;" parent="Keovx6AUSpHvrn1oEmUN-147" vertex="1" connectable="0">
          <mxGeometry x="-0.1256" y="-1" relative="1" as="geometry">
            <mxPoint as="offset" />
          </mxGeometry>
        </mxCell>
        <mxCell id="Keovx6AUSpHvrn1oEmUN-149" value="" style="endArrow=classic;html=1;rounded=0;fontFamily=Verdana;fontSize=11;strokeColor=#00FF00;" parent="1" edge="1">
          <mxGeometry width="50" height="50" relative="1" as="geometry">
            <mxPoint x="1168" y="619" as="sourcePoint" />
            <mxPoint x="1168.3099999999997" y="669" as="targetPoint" />
          </mxGeometry>
        </mxCell>
        <mxCell id="Keovx6AUSpHvrn1oEmUN-150" value="1.5.p1" style="verticalLabelPosition=bottom;verticalAlign=top;html=1;shape=hexagon;perimeter=hexagonPerimeter2;arcSize=6;size=0.27;fillColor=#FF8000;" parent="1" vertex="1">
          <mxGeometry x="1310" y="409.5" width="20" height="20" as="geometry" />
        </mxCell>
        <mxCell id="Keovx6AUSpHvrn1oEmUN-153" value="2.1.p12&lt;br&gt;(2.1.p12.c0)" style="verticalLabelPosition=bottom;verticalAlign=top;html=1;shape=hexagon;perimeter=hexagonPerimeter2;arcSize=6;size=0.27;fillColor=#4D4D4D;" parent="1" vertex="1">
          <mxGeometry x="1530" y="669.5" width="20" height="20" as="geometry" />
        </mxCell>
        <mxCell id="Keovx6AUSpHvrn1oEmUN-154" value="2.1.p13" style="verticalLabelPosition=bottom;verticalAlign=top;html=1;shape=hexagon;perimeter=hexagonPerimeter2;arcSize=6;size=0.27;fillColor=#00FF00;" parent="1" vertex="1">
          <mxGeometry x="1610" y="670" width="20" height="20" as="geometry" />
        </mxCell>
        <mxCell id="Keovx6AUSpHvrn1oEmUN-155" value="2.1.p14" style="verticalLabelPosition=bottom;verticalAlign=top;html=1;shape=hexagon;perimeter=hexagonPerimeter2;arcSize=6;size=0.27;fillColor=#00FF00;" parent="1" vertex="1">
          <mxGeometry x="1660" y="669.5" width="20" height="20" as="geometry" />
        </mxCell>
        <mxCell id="Keovx6AUSpHvrn1oEmUN-156" value="2.1&lt;br&gt;(2.1.p0.c0)" style="verticalLabelPosition=bottom;verticalAlign=top;html=1;shape=hexagon;perimeter=hexagonPerimeter2;arcSize=6;size=0.27;fillColor=#FF66FF;" parent="1" vertex="1">
          <mxGeometry x="1700" y="669.5" width="20" height="20" as="geometry" />
        </mxCell>
        <mxCell id="Keovx6AUSpHvrn1oEmUN-159" value="" style="endArrow=none;dashed=1;html=1;rounded=0;fontFamily=Verdana;fontSize=16;" parent="1" edge="1">
          <mxGeometry width="50" height="50" relative="1" as="geometry">
            <mxPoint x="1480" y="700" as="sourcePoint" />
            <mxPoint x="1620" y="717" as="targetPoint" />
            <Array as="points">
              <mxPoint x="1480" y="750" />
              <mxPoint x="1620" y="747" />
            </Array>
          </mxGeometry>
        </mxCell>
        <mxCell id="Keovx6AUSpHvrn1oEmUN-160" value="hacerxxxxxxxxxxxx" style="edgeLabel;html=1;align=center;verticalAlign=middle;resizable=0;points=[];fontSize=10;fontFamily=Verdana;" parent="Keovx6AUSpHvrn1oEmUN-159" vertex="1" connectable="0">
          <mxGeometry x="-0.1256" y="-1" relative="1" as="geometry">
            <mxPoint x="31" y="5" as="offset" />
          </mxGeometry>
        </mxCell>
        <mxCell id="Keovx6AUSpHvrn1oEmUN-161" value="" style="endArrow=classic;html=1;rounded=0;fontFamily=Verdana;fontSize=11;strokeColor=#00FF00;" parent="1" edge="1">
          <mxGeometry width="50" height="50" relative="1" as="geometry">
            <mxPoint x="1480" y="650" as="sourcePoint" />
            <mxPoint x="1480.3099999999995" y="670" as="targetPoint" />
          </mxGeometry>
        </mxCell>
        <mxCell id="Keovx6AUSpHvrn1oEmUN-164" value="" style="html=1;shadow=0;dashed=0;align=center;verticalAlign=middle;shape=mxgraph.arrows2.arrow;dy=0;dx=0;notch=0;fillColor=#FFFFFF;" parent="1" vertex="1">
          <mxGeometry x="1688.5" y="210" width="2464.5" height="11" as="geometry" />
        </mxCell>
        <mxCell id="Keovx6AUSpHvrn1oEmUN-165" value="release 2" style="text;html=1;resizable=0;autosize=1;align=center;verticalAlign=middle;points=[];fillColor=none;strokeColor=none;rounded=0;fontFamily=Verdana;fontSize=18;fontStyle=1" parent="1" vertex="1">
          <mxGeometry x="1568.5" y="200" width="110" height="30" as="geometry" />
        </mxCell>
        <mxCell id="Keovx6AUSpHvrn1oEmUN-167" style="edgeStyle=orthogonalEdgeStyle;rounded=0;orthogonalLoop=1;jettySize=auto;html=1;entryX=0.5;entryY=0;entryDx=0;entryDy=0;fontFamily=Verdana;fontSize=10;startArrow=classic;startFill=1;endArrow=none;endFill=0;strokeColor=#FF66FF;" parent="1" source="Keovx6AUSpHvrn1oEmUN-166" target="Keovx6AUSpHvrn1oEmUN-156" edge="1">
          <mxGeometry relative="1" as="geometry">
            <Array as="points">
              <mxPoint x="1710" y="334" />
              <mxPoint x="1710" y="334" />
            </Array>
          </mxGeometry>
        </mxCell>
        <mxCell id="Keovx6AUSpHvrn1oEmUN-166" value="2.1" style="verticalLabelPosition=bottom;verticalAlign=top;html=1;shape=hexagon;perimeter=hexagonPerimeter2;arcSize=6;size=0.27;fillColor=#FF99FF;" parent="1" vertex="1">
          <mxGeometry x="1698.5" y="205" width="20" height="20" as="geometry" />
        </mxCell>
        <mxCell id="44cg_ZbRsS5MFosydUlh-1" value="1.1.p1.c1" style="verticalLabelPosition=bottom;verticalAlign=top;html=1;shape=hexagon;perimeter=hexagonPerimeter2;arcSize=6;size=0.27;fillColor=#999999;fontSize=6;" parent="1" vertex="1">
          <mxGeometry x="120" y="674.5" width="10" height="10" as="geometry" />
        </mxCell>
        <mxCell id="44cg_ZbRsS5MFosydUlh-10" value="3.1.p4" style="verticalLabelPosition=bottom;verticalAlign=top;html=1;shape=hexagon;perimeter=hexagonPerimeter2;arcSize=6;size=0.27;fillColor=#FF8000;" parent="1" vertex="1">
          <mxGeometry x="2040" y="670" width="20" height="20" as="geometry" />
        </mxCell>
        <mxCell id="44cg_ZbRsS5MFosydUlh-14" value="3.1.p1" style="verticalLabelPosition=bottom;verticalAlign=top;html=1;shape=hexagon;perimeter=hexagonPerimeter2;arcSize=6;size=0.27;fillColor=#4D4D4D;" parent="1" vertex="1">
          <mxGeometry x="1780" y="668.5" width="20" height="20" as="geometry" />
        </mxCell>
        <mxCell id="44cg_ZbRsS5MFosydUlh-15" value="3.1.p2" style="verticalLabelPosition=bottom;verticalAlign=top;html=1;shape=hexagon;perimeter=hexagonPerimeter2;arcSize=6;size=0.27;fillColor=#00FF00;" parent="1" vertex="1">
          <mxGeometry x="1850" y="668.5" width="20" height="20" as="geometry" />
        </mxCell>
        <mxCell id="44cg_ZbRsS5MFosydUlh-16" value="3.1.p3" style="verticalLabelPosition=bottom;verticalAlign=top;html=1;shape=hexagon;perimeter=hexagonPerimeter2;arcSize=6;size=0.27;fillColor=#FF8000;" parent="1" vertex="1">
          <mxGeometry x="1900" y="669" width="20" height="20" as="geometry" />
        </mxCell>
        <mxCell id="44cg_ZbRsS5MFosydUlh-17" value="" style="endArrow=none;dashed=1;html=1;rounded=0;fontFamily=Verdana;fontSize=16;" parent="1" edge="1">
          <mxGeometry width="50" height="50" relative="1" as="geometry">
            <mxPoint x="1750" y="699" as="sourcePoint" />
            <mxPoint x="1860" y="715" as="targetPoint" />
            <Array as="points">
              <mxPoint x="1750" y="746" />
              <mxPoint x="1860" y="750" />
            </Array>
          </mxGeometry>
        </mxCell>
        <mxCell id="44cg_ZbRsS5MFosydUlh-18" value="hacerxxxxxxxxxxxx" style="edgeLabel;html=1;align=center;verticalAlign=middle;resizable=0;points=[];fontSize=10;fontFamily=Verdana;" parent="44cg_ZbRsS5MFosydUlh-17" vertex="1" connectable="0">
          <mxGeometry x="-0.1256" y="-1" relative="1" as="geometry">
            <mxPoint as="offset" />
          </mxGeometry>
        </mxCell>
        <mxCell id="44cg_ZbRsS5MFosydUlh-19" value="" style="endArrow=classic;html=1;rounded=0;fontFamily=Verdana;fontSize=11;strokeColor=#00FF00;" parent="1" edge="1">
          <mxGeometry width="50" height="50" relative="1" as="geometry">
            <mxPoint x="1750" y="618" as="sourcePoint" />
            <mxPoint x="1750.3099999999995" y="668" as="targetPoint" />
          </mxGeometry>
        </mxCell>
        <mxCell id="44cg_ZbRsS5MFosydUlh-20" value="2.2" style="verticalLabelPosition=bottom;verticalAlign=top;html=1;shape=hexagon;perimeter=hexagonPerimeter2;arcSize=6;size=0.27;fillColor=#FF99FF;" parent="1" vertex="1">
          <mxGeometry x="1898.5" y="205" width="20" height="20" as="geometry" />
        </mxCell>
        <mxCell id="44cg_ZbRsS5MFosydUlh-24" value="3.1.p5" style="verticalLabelPosition=bottom;verticalAlign=top;html=1;shape=hexagon;perimeter=hexagonPerimeter2;arcSize=6;size=0.27;fillColor=#4D4D4D;" parent="1" vertex="1">
          <mxGeometry x="2120" y="671" width="20" height="20" as="geometry" />
        </mxCell>
        <mxCell id="44cg_ZbRsS5MFosydUlh-26" value="3.1.p7" style="verticalLabelPosition=bottom;verticalAlign=top;html=1;shape=hexagon;perimeter=hexagonPerimeter2;arcSize=6;size=0.27;fillColor=#4D4D4D;" parent="1" vertex="1">
          <mxGeometry x="2300" y="670.5" width="20" height="20" as="geometry" />
        </mxCell>
        <mxCell id="44cg_ZbRsS5MFosydUlh-27" value="3.1.p9" style="verticalLabelPosition=bottom;verticalAlign=top;html=1;shape=hexagon;perimeter=hexagonPerimeter2;arcSize=6;size=0.27;fillColor=#FF8000;" parent="1" vertex="1">
          <mxGeometry x="2389" y="671" width="20" height="20" as="geometry" />
        </mxCell>
        <mxCell id="44cg_ZbRsS5MFosydUlh-28" value="" style="endArrow=none;dashed=1;html=1;rounded=0;fontFamily=Verdana;fontSize=16;" parent="1" edge="1">
          <mxGeometry width="50" height="50" relative="1" as="geometry">
            <mxPoint x="2090" y="711" as="sourcePoint" />
            <mxPoint x="2310" y="690" as="targetPoint" />
            <Array as="points">
              <mxPoint x="2090" y="781" />
              <mxPoint x="2310" y="781" />
            </Array>
          </mxGeometry>
        </mxCell>
        <mxCell id="44cg_ZbRsS5MFosydUlh-29" value="hacerxxxxxxxxxxxx" style="edgeLabel;html=1;align=center;verticalAlign=middle;resizable=0;points=[];fontSize=10;fontFamily=Verdana;" parent="44cg_ZbRsS5MFosydUlh-28" vertex="1" connectable="0">
          <mxGeometry x="-0.1256" y="-1" relative="1" as="geometry">
            <mxPoint as="offset" />
          </mxGeometry>
        </mxCell>
        <mxCell id="44cg_ZbRsS5MFosydUlh-30" value="3.1.p6" style="verticalLabelPosition=bottom;verticalAlign=top;html=1;shape=hexagon;perimeter=hexagonPerimeter2;arcSize=6;size=0.27;fillColor=#4D4D4D;" parent="1" vertex="1">
          <mxGeometry x="2240" y="670.5" width="20" height="20" as="geometry" />
        </mxCell>
        <mxCell id="44cg_ZbRsS5MFosydUlh-31" value="3.1.p8" style="verticalLabelPosition=bottom;verticalAlign=top;html=1;shape=hexagon;perimeter=hexagonPerimeter2;arcSize=6;size=0.27;fillColor=#00FF00;" parent="1" vertex="1">
          <mxGeometry x="2340" y="670.5" width="20" height="20" as="geometry" />
        </mxCell>
        <mxCell id="44cg_ZbRsS5MFosydUlh-32" value="3.1.p10" style="verticalLabelPosition=bottom;verticalAlign=top;html=1;shape=hexagon;perimeter=hexagonPerimeter2;arcSize=6;size=0.27;fillColor=#4D4D4D;" parent="1" vertex="1">
          <mxGeometry x="2460" y="670.5" width="20" height="20" as="geometry" />
        </mxCell>
        <mxCell id="44cg_ZbRsS5MFosydUlh-33" value="" style="endArrow=none;dashed=1;html=1;rounded=0;fontFamily=Verdana;fontSize=16;" parent="1" edge="1">
          <mxGeometry width="50" height="50" relative="1" as="geometry">
            <mxPoint x="2180" y="700.5" as="sourcePoint" />
            <mxPoint x="2348" y="720" as="targetPoint" />
            <Array as="points">
              <mxPoint x="2180" y="740.5" />
              <mxPoint x="2348" y="740.5" />
            </Array>
          </mxGeometry>
        </mxCell>
        <mxCell id="44cg_ZbRsS5MFosydUlh-34" value="hacerxxxxxxxxxxxx" style="edgeLabel;html=1;align=center;verticalAlign=middle;resizable=0;points=[];fontSize=10;fontFamily=Verdana;" parent="44cg_ZbRsS5MFosydUlh-33" vertex="1" connectable="0">
          <mxGeometry x="-0.1256" y="-1" relative="1" as="geometry">
            <mxPoint as="offset" />
          </mxGeometry>
        </mxCell>
        <mxCell id="44cg_ZbRsS5MFosydUlh-36" value="" style="endArrow=none;dashed=1;html=1;rounded=0;fontFamily=Verdana;fontSize=16;entryX=0.625;entryY=1;entryDx=0;entryDy=0;" parent="1" target="44cg_ZbRsS5MFosydUlh-44" edge="1">
          <mxGeometry width="50" height="50" relative="1" as="geometry">
            <mxPoint x="2440" y="700" as="sourcePoint" />
            <mxPoint x="2607.5" y="685" as="targetPoint" />
            <Array as="points">
              <mxPoint x="2440" y="740" />
              <mxPoint x="2513" y="740" />
            </Array>
          </mxGeometry>
        </mxCell>
        <mxCell id="44cg_ZbRsS5MFosydUlh-37" value="arreglar errorxxxxx" style="edgeLabel;html=1;align=center;verticalAlign=middle;resizable=0;points=[];fontSize=10;fontFamily=Verdana;" parent="44cg_ZbRsS5MFosydUlh-36" vertex="1" connectable="0">
          <mxGeometry x="-0.1256" y="-1" relative="1" as="geometry">
            <mxPoint as="offset" />
          </mxGeometry>
        </mxCell>
        <mxCell id="44cg_ZbRsS5MFosydUlh-38" value="3.1.p12" style="verticalLabelPosition=bottom;verticalAlign=top;html=1;shape=hexagon;perimeter=hexagonPerimeter2;arcSize=6;size=0.27;fillColor=#FF8000;" parent="1" vertex="1">
          <mxGeometry x="2550" y="670" width="20" height="20" as="geometry" />
        </mxCell>
        <mxCell id="44cg_ZbRsS5MFosydUlh-39" value="" style="endArrow=classic;html=1;rounded=0;fontFamily=Verdana;fontSize=11;strokeColor=#FF8000;" parent="1" edge="1">
          <mxGeometry width="50" height="50" relative="1" as="geometry">
            <mxPoint x="2440" y="625" as="sourcePoint" />
            <mxPoint x="2440" y="670" as="targetPoint" />
          </mxGeometry>
        </mxCell>
        <mxCell id="44cg_ZbRsS5MFosydUlh-40" value="" style="endArrow=classic;html=1;rounded=0;fontFamily=Verdana;fontSize=11;strokeColor=#00FF00;" parent="1" edge="1">
          <mxGeometry width="50" height="50" relative="1" as="geometry">
            <mxPoint x="2090" y="621" as="sourcePoint" />
            <mxPoint x="2090.31" y="671" as="targetPoint" />
          </mxGeometry>
        </mxCell>
        <mxCell id="44cg_ZbRsS5MFosydUlh-41" value="" style="endArrow=classic;html=1;rounded=0;fontFamily=Verdana;fontSize=11;strokeColor=#00FF00;" parent="1" edge="1">
          <mxGeometry width="50" height="50" relative="1" as="geometry">
            <mxPoint x="2180" y="620.5" as="sourcePoint" />
            <mxPoint x="2180.31" y="670.5" as="targetPoint" />
          </mxGeometry>
        </mxCell>
        <mxCell id="44cg_ZbRsS5MFosydUlh-42" style="edgeStyle=orthogonalEdgeStyle;rounded=0;orthogonalLoop=1;jettySize=auto;html=1;entryX=0.5;entryY=1;entryDx=0;entryDy=0;fontFamily=Verdana;fontSize=11;startArrow=classic;startFill=1;endArrow=none;endFill=0;strokeColor=#FF8000;" parent="1" target="44cg_ZbRsS5MFosydUlh-38" edge="1">
          <mxGeometry relative="1" as="geometry">
            <mxPoint x="2560" y="671" as="sourcePoint" />
          </mxGeometry>
        </mxCell>
        <mxCell id="44cg_ZbRsS5MFosydUlh-44" value="3.1.p11" style="verticalLabelPosition=bottom;verticalAlign=top;html=1;shape=hexagon;perimeter=hexagonPerimeter2;arcSize=6;size=0.27;fillColor=#FF8000;" parent="1" vertex="1">
          <mxGeometry x="2500" y="670" width="20" height="20" as="geometry" />
        </mxCell>
        <mxCell id="44cg_ZbRsS5MFosydUlh-45" value="2.3" style="verticalLabelPosition=bottom;verticalAlign=top;html=1;shape=hexagon;perimeter=hexagonPerimeter2;arcSize=6;size=0.27;fillColor=#FF99FF;" parent="1" vertex="1">
          <mxGeometry x="2038.5" y="205" width="20" height="20" as="geometry" />
        </mxCell>
        <mxCell id="44cg_ZbRsS5MFosydUlh-47" value="2.4" style="verticalLabelPosition=bottom;verticalAlign=top;html=1;shape=hexagon;perimeter=hexagonPerimeter2;arcSize=6;size=0.27;fillColor=#FF99FF;" parent="1" vertex="1">
          <mxGeometry x="2387.5" y="205" width="20" height="20" as="geometry" />
        </mxCell>
        <mxCell id="44cg_ZbRsS5MFosydUlh-49" value="2.5" style="verticalLabelPosition=bottom;verticalAlign=top;html=1;shape=hexagon;perimeter=hexagonPerimeter2;arcSize=6;size=0.27;fillColor=#FF99FF;" parent="1" vertex="1">
          <mxGeometry x="2548.5" y="205" width="20" height="20" as="geometry" />
        </mxCell>
        <mxCell id="44cg_ZbRsS5MFosydUlh-54" value="3.1.p15" style="verticalLabelPosition=bottom;verticalAlign=top;html=1;shape=hexagon;perimeter=hexagonPerimeter2;arcSize=6;size=0.27;fillColor=#4D4D4D;" parent="1" vertex="1">
          <mxGeometry x="2645" y="669.5" width="20" height="20" as="geometry" />
        </mxCell>
        <mxCell id="44cg_ZbRsS5MFosydUlh-56" value="3.1.p17" style="verticalLabelPosition=bottom;verticalAlign=top;html=1;shape=hexagon;perimeter=hexagonPerimeter2;arcSize=6;size=0.27;fillColor=#4D4D4D;" parent="1" vertex="1">
          <mxGeometry x="2780" y="670" width="20" height="20" as="geometry" />
        </mxCell>
        <mxCell id="44cg_ZbRsS5MFosydUlh-57" value="3.1.p18" style="verticalLabelPosition=bottom;verticalAlign=top;html=1;shape=hexagon;perimeter=hexagonPerimeter2;arcSize=6;size=0.27;fillColor=#FF8000;" parent="1" vertex="1">
          <mxGeometry x="2840" y="669.5" width="20" height="20" as="geometry" />
        </mxCell>
        <mxCell id="44cg_ZbRsS5MFosydUlh-58" value="3.1.p16" style="verticalLabelPosition=bottom;verticalAlign=top;html=1;shape=hexagon;perimeter=hexagonPerimeter2;arcSize=6;size=0.27;fillColor=#4D4D4D;" parent="1" vertex="1">
          <mxGeometry x="2725" y="671" width="20" height="20" as="geometry" />
        </mxCell>
        <mxCell id="44cg_ZbRsS5MFosydUlh-59" value="" style="endArrow=none;dashed=1;html=1;rounded=0;fontFamily=Verdana;fontSize=16;" parent="1" edge="1">
          <mxGeometry width="50" height="50" relative="1" as="geometry">
            <mxPoint x="2710" y="700" as="sourcePoint" />
            <mxPoint x="2850" y="710" as="targetPoint" />
            <Array as="points">
              <mxPoint x="2710" y="730" />
              <mxPoint x="2850" y="733" />
            </Array>
          </mxGeometry>
        </mxCell>
        <mxCell id="44cg_ZbRsS5MFosydUlh-60" value="arreglar errorxxxx" style="edgeLabel;html=1;align=center;verticalAlign=middle;resizable=0;points=[];fontSize=10;fontFamily=Verdana;" parent="44cg_ZbRsS5MFosydUlh-59" vertex="1" connectable="0">
          <mxGeometry x="-0.1256" y="-1" relative="1" as="geometry">
            <mxPoint as="offset" />
          </mxGeometry>
        </mxCell>
        <mxCell id="44cg_ZbRsS5MFosydUlh-61" value="3.1.p19" style="verticalLabelPosition=bottom;verticalAlign=top;html=1;shape=hexagon;perimeter=hexagonPerimeter2;arcSize=6;size=0.27;fillColor=#4D4D4D;" parent="1" vertex="1">
          <mxGeometry x="2905" y="671" width="20" height="20" as="geometry" />
        </mxCell>
        <mxCell id="44cg_ZbRsS5MFosydUlh-62" value="3.1.p20" style="verticalLabelPosition=bottom;verticalAlign=top;html=1;shape=hexagon;perimeter=hexagonPerimeter2;arcSize=6;size=0.27;fillColor=#00FF00;" parent="1" vertex="1">
          <mxGeometry x="2985" y="671" width="20" height="20" as="geometry" />
        </mxCell>
        <mxCell id="44cg_ZbRsS5MFosydUlh-63" value="" style="endArrow=none;dashed=1;html=1;rounded=0;fontFamily=Verdana;fontSize=16;" parent="1" edge="1">
          <mxGeometry width="50" height="50" relative="1" as="geometry">
            <mxPoint x="2600" y="700" as="sourcePoint" />
            <mxPoint x="2995" y="720" as="targetPoint" />
            <Array as="points">
              <mxPoint x="2600" y="751" />
              <mxPoint x="2995" y="751" />
            </Array>
          </mxGeometry>
        </mxCell>
        <mxCell id="44cg_ZbRsS5MFosydUlh-64" value="hacerxxxxxxxxxxxx" style="edgeLabel;html=1;align=center;verticalAlign=middle;resizable=0;points=[];fontSize=10;fontFamily=Verdana;" parent="44cg_ZbRsS5MFosydUlh-63" vertex="1" connectable="0">
          <mxGeometry x="-0.1256" y="-1" relative="1" as="geometry">
            <mxPoint as="offset" />
          </mxGeometry>
        </mxCell>
        <mxCell id="44cg_ZbRsS5MFosydUlh-65" value="3.1.p22" style="verticalLabelPosition=bottom;verticalAlign=top;html=1;shape=hexagon;perimeter=hexagonPerimeter2;arcSize=6;size=0.27;fillColor=#00FF00;" parent="1" vertex="1">
          <mxGeometry x="3085" y="670.5" width="20" height="20" as="geometry" />
        </mxCell>
        <mxCell id="44cg_ZbRsS5MFosydUlh-66" value="3.1.p25" style="verticalLabelPosition=bottom;verticalAlign=top;html=1;shape=hexagon;perimeter=hexagonPerimeter2;arcSize=6;size=0.27;fillColor=#FF8000;" parent="1" vertex="1">
          <mxGeometry x="3174" y="671" width="20" height="20" as="geometry" />
        </mxCell>
        <mxCell id="44cg_ZbRsS5MFosydUlh-67" value="" style="endArrow=none;dashed=1;html=1;rounded=0;fontFamily=Verdana;fontSize=16;" parent="1" edge="1">
          <mxGeometry width="50" height="50" relative="1" as="geometry">
            <mxPoint x="2875" y="711" as="sourcePoint" />
            <mxPoint x="3098" y="720" as="targetPoint" />
            <Array as="points">
              <mxPoint x="2875" y="781" />
              <mxPoint x="3098" y="780" />
            </Array>
          </mxGeometry>
        </mxCell>
        <mxCell id="44cg_ZbRsS5MFosydUlh-68" value="hacerxxxxxxxxxxxx" style="edgeLabel;html=1;align=center;verticalAlign=middle;resizable=0;points=[];fontSize=10;fontFamily=Verdana;" parent="44cg_ZbRsS5MFosydUlh-67" vertex="1" connectable="0">
          <mxGeometry x="-0.1256" y="-1" relative="1" as="geometry">
            <mxPoint as="offset" />
          </mxGeometry>
        </mxCell>
        <mxCell id="44cg_ZbRsS5MFosydUlh-69" value="3.1.p21" style="verticalLabelPosition=bottom;verticalAlign=top;html=1;shape=hexagon;perimeter=hexagonPerimeter2;arcSize=6;size=0.27;fillColor=#4D4D4D;" parent="1" vertex="1">
          <mxGeometry x="3040" y="670" width="20" height="20" as="geometry" />
        </mxCell>
        <mxCell id="44cg_ZbRsS5MFosydUlh-70" value="3.1.p23" style="verticalLabelPosition=bottom;verticalAlign=top;html=1;shape=hexagon;perimeter=hexagonPerimeter2;arcSize=6;size=0.27;fillColor=#00FF00;" parent="1" vertex="1">
          <mxGeometry x="3130" y="670" width="20" height="20" as="geometry" />
        </mxCell>
        <mxCell id="44cg_ZbRsS5MFosydUlh-71" value="" style="endArrow=none;dashed=1;html=1;rounded=0;fontFamily=Verdana;fontSize=16;" parent="1" edge="1">
          <mxGeometry width="50" height="50" relative="1" as="geometry">
            <mxPoint x="2965" y="700.5" as="sourcePoint" />
            <mxPoint x="3140" y="720" as="targetPoint" />
            <Array as="points">
              <mxPoint x="2965" y="740.5" />
              <mxPoint x="3140" y="740" />
            </Array>
          </mxGeometry>
        </mxCell>
        <mxCell id="44cg_ZbRsS5MFosydUlh-72" value="hacerxxxxxxxxxxxx" style="edgeLabel;html=1;align=center;verticalAlign=middle;resizable=0;points=[];fontSize=10;fontFamily=Verdana;" parent="44cg_ZbRsS5MFosydUlh-71" vertex="1" connectable="0">
          <mxGeometry x="-0.1256" y="-1" relative="1" as="geometry">
            <mxPoint as="offset" />
          </mxGeometry>
        </mxCell>
        <mxCell id="44cg_ZbRsS5MFosydUlh-77" value="" style="endArrow=classic;html=1;rounded=0;fontFamily=Verdana;fontSize=11;strokeColor=#00FF00;" parent="1" edge="1">
          <mxGeometry width="50" height="50" relative="1" as="geometry">
            <mxPoint x="2600.69" y="618.5" as="sourcePoint" />
            <mxPoint x="2600" y="668.5" as="targetPoint" />
          </mxGeometry>
        </mxCell>
        <mxCell id="44cg_ZbRsS5MFosydUlh-80" value="" style="endArrow=classic;html=1;rounded=0;fontFamily=Verdana;fontSize=11;strokeColor=#FF8000;" parent="1" edge="1">
          <mxGeometry width="50" height="50" relative="1" as="geometry">
            <mxPoint x="2998" y="155" as="sourcePoint" />
            <mxPoint x="2998" y="200" as="targetPoint" />
          </mxGeometry>
        </mxCell>
        <mxCell id="44cg_ZbRsS5MFosydUlh-81" value="" style="endArrow=classic;html=1;rounded=0;fontFamily=Verdana;fontSize=11;strokeColor=#00FF00;" parent="1" edge="1">
          <mxGeometry width="50" height="50" relative="1" as="geometry">
            <mxPoint x="2875" y="621" as="sourcePoint" />
            <mxPoint x="2875.3100000000004" y="671" as="targetPoint" />
          </mxGeometry>
        </mxCell>
        <mxCell id="44cg_ZbRsS5MFosydUlh-82" value="" style="endArrow=classic;html=1;rounded=0;fontFamily=Verdana;fontSize=11;strokeColor=#00FF00;" parent="1" edge="1">
          <mxGeometry width="50" height="50" relative="1" as="geometry">
            <mxPoint x="2965" y="620.5" as="sourcePoint" />
            <mxPoint x="2965.3100000000004" y="670.5" as="targetPoint" />
          </mxGeometry>
        </mxCell>
        <mxCell id="44cg_ZbRsS5MFosydUlh-83" value="" style="endArrow=classic;html=1;rounded=0;fontFamily=Verdana;fontSize=11;strokeColor=#00FF00;" parent="1" edge="1">
          <mxGeometry width="50" height="50" relative="1" as="geometry">
            <mxPoint x="3110" y="615" as="sourcePoint" />
            <mxPoint x="3110.3099999999995" y="665" as="targetPoint" />
          </mxGeometry>
        </mxCell>
        <mxCell id="44cg_ZbRsS5MFosydUlh-84" value="2.6" style="verticalLabelPosition=bottom;verticalAlign=top;html=1;shape=hexagon;perimeter=hexagonPerimeter2;arcSize=6;size=0.27;fillColor=#FF99FF;" parent="1" vertex="1">
          <mxGeometry x="3172.5" y="205" width="20" height="20" as="geometry" />
        </mxCell>
        <mxCell id="44cg_ZbRsS5MFosydUlh-87" value="3.1.p26" style="verticalLabelPosition=bottom;verticalAlign=top;html=1;shape=hexagon;perimeter=hexagonPerimeter2;arcSize=6;size=0.27;fillColor=#4D4D4D;" parent="1" vertex="1">
          <mxGeometry x="3224" y="670.5" width="20" height="20" as="geometry" />
        </mxCell>
        <mxCell id="44cg_ZbRsS5MFosydUlh-88" value="3.1.p28" style="verticalLabelPosition=bottom;verticalAlign=top;html=1;shape=hexagon;perimeter=hexagonPerimeter2;arcSize=6;size=0.27;fillColor=#00FF00;" parent="1" vertex="1">
          <mxGeometry x="3380" y="669" width="20" height="20" as="geometry" />
        </mxCell>
        <mxCell id="44cg_ZbRsS5MFosydUlh-89" value="3.1.p30" style="verticalLabelPosition=bottom;verticalAlign=top;html=1;shape=hexagon;perimeter=hexagonPerimeter2;arcSize=6;size=0.27;fillColor=#FF8000;" parent="1" vertex="1">
          <mxGeometry x="3473" y="670" width="20" height="20" as="geometry" />
        </mxCell>
        <mxCell id="44cg_ZbRsS5MFosydUlh-90" value="" style="endArrow=none;dashed=1;html=1;rounded=0;fontFamily=Verdana;fontSize=16;" parent="1" edge="1">
          <mxGeometry width="50" height="50" relative="1" as="geometry">
            <mxPoint x="3110" y="720" as="sourcePoint" />
            <mxPoint x="3390" y="710" as="targetPoint" />
            <Array as="points">
              <mxPoint x="3110" y="760" />
              <mxPoint x="3390" y="760" />
            </Array>
          </mxGeometry>
        </mxCell>
        <mxCell id="44cg_ZbRsS5MFosydUlh-91" value="hacerxxxxxxxxxxxx" style="edgeLabel;html=1;align=center;verticalAlign=middle;resizable=0;points=[];fontSize=10;fontFamily=Verdana;" parent="44cg_ZbRsS5MFosydUlh-90" vertex="1" connectable="0">
          <mxGeometry x="-0.1256" y="-1" relative="1" as="geometry">
            <mxPoint as="offset" />
          </mxGeometry>
        </mxCell>
        <mxCell id="44cg_ZbRsS5MFosydUlh-92" value="3.1.p27" style="verticalLabelPosition=bottom;verticalAlign=top;html=1;shape=hexagon;perimeter=hexagonPerimeter2;arcSize=6;size=0.27;fillColor=#4D4D4D;" parent="1" vertex="1">
          <mxGeometry x="3310" y="669" width="20" height="20" as="geometry" />
        </mxCell>
        <mxCell id="44cg_ZbRsS5MFosydUlh-93" value="3.1.p29" style="verticalLabelPosition=bottom;verticalAlign=top;html=1;shape=hexagon;perimeter=hexagonPerimeter2;arcSize=6;size=0.27;fillColor=#00FF00;" parent="1" vertex="1">
          <mxGeometry x="3430" y="670" width="20" height="20" as="geometry" />
        </mxCell>
        <mxCell id="44cg_ZbRsS5MFosydUlh-94" value="" style="endArrow=none;dashed=1;html=1;rounded=0;fontFamily=Verdana;fontSize=16;" parent="1" edge="1">
          <mxGeometry width="50" height="50" relative="1" as="geometry">
            <mxPoint x="3284" y="700" as="sourcePoint" />
            <mxPoint x="3440" y="720" as="targetPoint" />
            <Array as="points">
              <mxPoint x="3284" y="740" />
              <mxPoint x="3440" y="740" />
            </Array>
          </mxGeometry>
        </mxCell>
        <mxCell id="44cg_ZbRsS5MFosydUlh-95" value="hacerxxxxxxxxxxxx" style="edgeLabel;html=1;align=center;verticalAlign=middle;resizable=0;points=[];fontSize=10;fontFamily=Verdana;" parent="44cg_ZbRsS5MFosydUlh-94" vertex="1" connectable="0">
          <mxGeometry x="-0.1256" y="-1" relative="1" as="geometry">
            <mxPoint x="24" y="5" as="offset" />
          </mxGeometry>
        </mxCell>
        <mxCell id="44cg_ZbRsS5MFosydUlh-97" value="" style="endArrow=classic;html=1;rounded=0;fontFamily=Verdana;fontSize=11;strokeColor=#00FF00;" parent="1" edge="1">
          <mxGeometry width="50" height="50" relative="1" as="geometry">
            <mxPoint x="3284" y="620" as="sourcePoint" />
            <mxPoint x="3284.31" y="670" as="targetPoint" />
          </mxGeometry>
        </mxCell>
        <mxCell id="44cg_ZbRsS5MFosydUlh-98" value="2.7" style="verticalLabelPosition=bottom;verticalAlign=top;html=1;shape=hexagon;perimeter=hexagonPerimeter2;arcSize=6;size=0.27;fillColor=#FF99FF;" parent="1" vertex="1">
          <mxGeometry x="3473" y="205" width="20" height="20" as="geometry" />
        </mxCell>
        <mxCell id="44cg_ZbRsS5MFosydUlh-108" value="3.1.p31" style="verticalLabelPosition=bottom;verticalAlign=top;html=1;shape=hexagon;perimeter=hexagonPerimeter2;arcSize=6;size=0.27;fillColor=#4D4D4D;" parent="1" vertex="1">
          <mxGeometry x="3540" y="669.5" width="20" height="20" as="geometry" />
        </mxCell>
        <mxCell id="44cg_ZbRsS5MFosydUlh-111" value="3.1.p32&lt;br&gt;(3.1.p32.c0)" style="verticalLabelPosition=bottom;verticalAlign=top;html=1;shape=hexagon;perimeter=hexagonPerimeter2;arcSize=6;size=0.27;fillColor=#FF8000;" parent="1" vertex="1">
          <mxGeometry x="3616" y="671.5" width="20" height="20" as="geometry" />
        </mxCell>
        <mxCell id="44cg_ZbRsS5MFosydUlh-112" value="" style="endArrow=classic;html=1;rounded=0;fontFamily=Verdana;fontSize=11;strokeColor=#FF8000;" parent="1" edge="1">
          <mxGeometry x="0.5258" y="-26" width="50" height="50" relative="1" as="geometry">
            <mxPoint x="3556" y="155" as="sourcePoint" />
            <mxPoint x="3556" y="200" as="targetPoint" />
            <Array as="points">
              <mxPoint x="3556.5" y="200" />
            </Array>
            <mxPoint as="offset" />
          </mxGeometry>
        </mxCell>
        <mxCell id="44cg_ZbRsS5MFosydUlh-114" value="" style="endArrow=none;dashed=1;html=1;rounded=0;fontFamily=Verdana;fontSize=16;" parent="1" edge="1">
          <mxGeometry width="50" height="50" relative="1" as="geometry">
            <mxPoint x="3430" y="710" as="sourcePoint" />
            <mxPoint x="4010" y="717" as="targetPoint" />
            <Array as="points">
              <mxPoint x="3430" y="770" />
              <mxPoint x="4010" y="773" />
            </Array>
          </mxGeometry>
        </mxCell>
        <mxCell id="44cg_ZbRsS5MFosydUlh-115" value="hacerxxxxxxxxxxxx" style="edgeLabel;html=1;align=center;verticalAlign=middle;resizable=0;points=[];fontSize=10;fontFamily=Verdana;" parent="44cg_ZbRsS5MFosydUlh-114" vertex="1" connectable="0">
          <mxGeometry x="-0.1256" y="-1" relative="1" as="geometry">
            <mxPoint as="offset" />
          </mxGeometry>
        </mxCell>
        <mxCell id="44cg_ZbRsS5MFosydUlh-116" value="" style="endArrow=classic;html=1;rounded=0;fontFamily=Verdana;fontSize=11;strokeColor=#00FF00;" parent="1" edge="1">
          <mxGeometry width="50" height="50" relative="1" as="geometry">
            <mxPoint x="3430" y="615" as="sourcePoint" />
            <mxPoint x="3430.3099999999995" y="665" as="targetPoint" />
          </mxGeometry>
        </mxCell>
        <mxCell id="44cg_ZbRsS5MFosydUlh-118" value="3.1.p33" style="verticalLabelPosition=bottom;verticalAlign=top;html=1;shape=hexagon;perimeter=hexagonPerimeter2;arcSize=6;size=0.27;fillColor=#4D4D4D;" parent="1" vertex="1">
          <mxGeometry x="3696" y="672.5" width="20" height="17.5" as="geometry" />
        </mxCell>
        <mxCell id="44cg_ZbRsS5MFosydUlh-119" value="3.1.p34" style="verticalLabelPosition=bottom;verticalAlign=top;html=1;shape=hexagon;perimeter=hexagonPerimeter2;arcSize=6;size=0.27;fillColor=#4D4D4D;" parent="1" vertex="1">
          <mxGeometry x="3758" y="669" width="20" height="20" as="geometry" />
        </mxCell>
        <mxCell id="44cg_ZbRsS5MFosydUlh-120" value="3.1.p35" style="verticalLabelPosition=bottom;verticalAlign=top;html=1;shape=hexagon;perimeter=hexagonPerimeter2;arcSize=6;size=0.27;fillColor=#4D4D4D;" parent="1" vertex="1">
          <mxGeometry x="3820.5" y="668" width="20" height="20" as="geometry" />
        </mxCell>
        <mxCell id="44cg_ZbRsS5MFosydUlh-121" value="3.1.p36" style="verticalLabelPosition=bottom;verticalAlign=top;html=1;shape=hexagon;perimeter=hexagonPerimeter2;arcSize=6;size=0.27;fillColor=#00FF00;" parent="1" vertex="1">
          <mxGeometry x="3876" y="669" width="20" height="20" as="geometry" />
        </mxCell>
        <mxCell id="44cg_ZbRsS5MFosydUlh-123" value="3.1.p38" style="verticalLabelPosition=bottom;verticalAlign=top;html=1;shape=hexagon;perimeter=hexagonPerimeter2;arcSize=6;size=0.27;fillColor=#00FF00;" parent="1" vertex="1">
          <mxGeometry x="4000" y="670" width="20" height="20" as="geometry" />
        </mxCell>
        <mxCell id="44cg_ZbRsS5MFosydUlh-124" value="" style="endArrow=none;dashed=1;html=1;rounded=0;fontFamily=Verdana;fontSize=16;" parent="1" edge="1">
          <mxGeometry width="50" height="50" relative="1" as="geometry">
            <mxPoint x="3736" y="702.5" as="sourcePoint" />
            <mxPoint x="3895" y="720" as="targetPoint" />
            <Array as="points">
              <mxPoint x="3736" y="749.5" />
              <mxPoint x="3895" y="750" />
            </Array>
          </mxGeometry>
        </mxCell>
        <mxCell id="44cg_ZbRsS5MFosydUlh-125" value="hacerxxxxxxxxxxxx" style="edgeLabel;html=1;align=center;verticalAlign=middle;resizable=0;points=[];fontSize=10;fontFamily=Verdana;" parent="44cg_ZbRsS5MFosydUlh-124" vertex="1" connectable="0">
          <mxGeometry x="-0.1256" y="-1" relative="1" as="geometry">
            <mxPoint x="20" y="4" as="offset" />
          </mxGeometry>
        </mxCell>
        <mxCell id="44cg_ZbRsS5MFosydUlh-126" value="" style="endArrow=classic;html=1;rounded=0;fontFamily=Verdana;fontSize=11;strokeColor=#00FF00;" parent="1" edge="1">
          <mxGeometry width="50" height="50" relative="1" as="geometry">
            <mxPoint x="3736" y="621.5" as="sourcePoint" />
            <mxPoint x="3736.3099999999995" y="671.5" as="targetPoint" />
          </mxGeometry>
        </mxCell>
        <mxCell id="44cg_ZbRsS5MFosydUlh-128" value="2.8" style="verticalLabelPosition=bottom;verticalAlign=top;html=1;shape=hexagon;perimeter=hexagonPerimeter2;arcSize=6;size=0.27;fillColor=#FF99FF;" parent="1" vertex="1">
          <mxGeometry x="3614.5" y="205" width="20" height="20" as="geometry" />
        </mxCell>
        <mxCell id="44cg_ZbRsS5MFosydUlh-132" value="" style="html=1;shadow=0;dashed=0;align=center;verticalAlign=middle;shape=mxgraph.arrows2.arrow;dy=0.67;dx=20;notch=0;fillColor=#FFFFFF;" parent="1" vertex="1">
          <mxGeometry x="4198" y="53" width="982" height="27" as="geometry" />
        </mxCell>
        <mxCell id="44cg_ZbRsS5MFosydUlh-133" value="release 3" style="text;html=1;resizable=0;autosize=1;align=center;verticalAlign=middle;points=[];fillColor=none;strokeColor=none;rounded=0;fontFamily=Verdana;fontSize=18;fontStyle=1" parent="1" vertex="1">
          <mxGeometry x="4030.5" y="50" width="110" height="30" as="geometry" />
        </mxCell>
        <mxCell id="44cg_ZbRsS5MFosydUlh-135" value="3.1.p39" style="verticalLabelPosition=bottom;verticalAlign=top;html=1;shape=hexagon;perimeter=hexagonPerimeter2;arcSize=6;size=0.27;fillColor=#4D4D4D;" parent="1" vertex="1">
          <mxGeometry x="4110" y="670" width="20" height="20" as="geometry" />
        </mxCell>
        <mxCell id="44cg_ZbRsS5MFosydUlh-136" value="" style="endArrow=none;dashed=1;html=1;rounded=0;fontFamily=Verdana;fontSize=16;" parent="1" edge="1">
          <mxGeometry width="50" height="50" relative="1" as="geometry">
            <mxPoint x="4087" y="696" as="sourcePoint" />
            <mxPoint x="4181" y="715" as="targetPoint" />
            <Array as="points">
              <mxPoint x="4088" y="740" />
              <mxPoint x="4181" y="740" />
            </Array>
          </mxGeometry>
        </mxCell>
        <mxCell id="44cg_ZbRsS5MFosydUlh-137" value="arreglar errorxxxxx" style="edgeLabel;html=1;align=center;verticalAlign=middle;resizable=0;points=[];fontSize=10;fontFamily=Verdana;" parent="44cg_ZbRsS5MFosydUlh-136" vertex="1" connectable="0">
          <mxGeometry x="-0.1256" y="-1" relative="1" as="geometry">
            <mxPoint x="22" y="4" as="offset" />
          </mxGeometry>
        </mxCell>
        <mxCell id="44cg_ZbRsS5MFosydUlh-163" style="edgeStyle=orthogonalEdgeStyle;rounded=0;orthogonalLoop=1;jettySize=auto;html=1;entryX=0.5;entryY=1;entryDx=0;entryDy=0;strokeColor=#FF99FF;" parent="1" source="44cg_ZbRsS5MFosydUlh-138" target="44cg_ZbRsS5MFosydUlh-162" edge="1">
          <mxGeometry relative="1" as="geometry" />
        </mxCell>
        <mxCell id="44cg_ZbRsS5MFosydUlh-138" value="3.1&lt;br&gt;(3.1.p0.c0)" style="verticalLabelPosition=bottom;verticalAlign=top;html=1;shape=hexagon;perimeter=hexagonPerimeter2;arcSize=6;size=0.27;fillColor=#FF99FF;" parent="1" vertex="1">
          <mxGeometry x="4212" y="671" width="20" height="20" as="geometry" />
        </mxCell>
        <mxCell id="44cg_ZbRsS5MFosydUlh-139" value="" style="endArrow=classic;html=1;rounded=0;fontFamily=Verdana;fontSize=11;strokeColor=#FF8000;" parent="1" edge="1">
          <mxGeometry width="50" height="50" relative="1" as="geometry">
            <mxPoint x="4085.26" y="626.5" as="sourcePoint" />
            <mxPoint x="4085.26" y="671.5" as="targetPoint" />
          </mxGeometry>
        </mxCell>
        <mxCell id="44cg_ZbRsS5MFosydUlh-141" value="" style="endArrow=none;dashed=1;html=1;rounded=0;fontFamily=Verdana;fontSize=16;" parent="1" target="44cg_ZbRsS5MFosydUlh-150" edge="1">
          <mxGeometry width="50" height="50" relative="1" as="geometry">
            <mxPoint x="4040.9999999999995" y="702" as="sourcePoint" />
            <mxPoint x="4712" y="722" as="targetPoint" />
            <Array as="points">
              <mxPoint x="4041" y="772" />
              <mxPoint x="4582" y="772" />
            </Array>
          </mxGeometry>
        </mxCell>
        <mxCell id="44cg_ZbRsS5MFosydUlh-142" value="hacerxxxxxxxxxxxx" style="edgeLabel;html=1;align=center;verticalAlign=middle;resizable=0;points=[];fontSize=10;fontFamily=Verdana;" parent="44cg_ZbRsS5MFosydUlh-141" vertex="1" connectable="0">
          <mxGeometry x="-0.1256" y="-1" relative="1" as="geometry">
            <mxPoint as="offset" />
          </mxGeometry>
        </mxCell>
        <mxCell id="44cg_ZbRsS5MFosydUlh-143" value="" style="endArrow=classic;html=1;rounded=0;fontFamily=Verdana;fontSize=11;strokeColor=#00FF00;" parent="1" edge="1">
          <mxGeometry width="50" height="50" relative="1" as="geometry">
            <mxPoint x="4040" y="621" as="sourcePoint" />
            <mxPoint x="4040.3099999999995" y="671" as="targetPoint" />
          </mxGeometry>
        </mxCell>
        <mxCell id="44cg_ZbRsS5MFosydUlh-145" value="4.1.p1" style="verticalLabelPosition=bottom;verticalAlign=top;html=1;shape=hexagon;perimeter=hexagonPerimeter2;arcSize=6;size=0.27;fillColor=#4D4D4D;" parent="1" vertex="1">
          <mxGeometry x="4292" y="669" width="20" height="20" as="geometry" />
        </mxCell>
        <mxCell id="44cg_ZbRsS5MFosydUlh-146" value="4.1.p2" style="verticalLabelPosition=bottom;verticalAlign=top;html=1;shape=hexagon;perimeter=hexagonPerimeter2;arcSize=6;size=0.27;fillColor=#4D4D4D;" parent="1" vertex="1">
          <mxGeometry x="4362" y="671.5" width="20" height="20" as="geometry" />
        </mxCell>
        <mxCell id="44cg_ZbRsS5MFosydUlh-147" value="4.1.p3" style="verticalLabelPosition=bottom;verticalAlign=top;html=1;shape=hexagon;perimeter=hexagonPerimeter2;arcSize=6;size=0.27;fillColor=#4D4D4D;" parent="1" vertex="1">
          <mxGeometry x="4430" y="670.5" width="20" height="20" as="geometry" />
        </mxCell>
        <mxCell id="44cg_ZbRsS5MFosydUlh-148" value="4.1.p4" style="verticalLabelPosition=bottom;verticalAlign=top;html=1;shape=hexagon;perimeter=hexagonPerimeter2;arcSize=6;size=0.27;fillColor=#00FF00;" parent="1" vertex="1">
          <mxGeometry x="4482" y="672" width="20" height="20" as="geometry" />
        </mxCell>
        <mxCell id="44cg_ZbRsS5MFosydUlh-149" value="4.1.p5" style="verticalLabelPosition=bottom;verticalAlign=top;html=1;shape=hexagon;perimeter=hexagonPerimeter2;arcSize=6;size=0.27;fillColor=#4D4D4D;" parent="1" vertex="1">
          <mxGeometry x="4532" y="671.5" width="20" height="20" as="geometry" />
        </mxCell>
        <mxCell id="44cg_ZbRsS5MFosydUlh-150" value="4.1.p6" style="verticalLabelPosition=bottom;verticalAlign=top;html=1;shape=hexagon;perimeter=hexagonPerimeter2;arcSize=6;size=0.27;fillColor=#00FF00;" parent="1" vertex="1">
          <mxGeometry x="4572" y="671.5" width="20" height="20" as="geometry" />
        </mxCell>
        <mxCell id="44cg_ZbRsS5MFosydUlh-151" value="" style="endArrow=none;dashed=1;html=1;rounded=0;fontFamily=Verdana;fontSize=16;" parent="1" edge="1">
          <mxGeometry width="50" height="50" relative="1" as="geometry">
            <mxPoint x="4268" y="701" as="sourcePoint" />
            <mxPoint x="4492" y="718" as="targetPoint" />
            <Array as="points">
              <mxPoint x="4268" y="747" />
              <mxPoint x="4493" y="750" />
            </Array>
          </mxGeometry>
        </mxCell>
        <mxCell id="44cg_ZbRsS5MFosydUlh-152" value="hacerxxxxxxxxxxxx" style="edgeLabel;html=1;align=center;verticalAlign=middle;resizable=0;points=[];fontSize=10;fontFamily=Verdana;" parent="44cg_ZbRsS5MFosydUlh-151" vertex="1" connectable="0">
          <mxGeometry x="-0.1256" y="-1" relative="1" as="geometry">
            <mxPoint x="19" y="5" as="offset" />
          </mxGeometry>
        </mxCell>
        <mxCell id="44cg_ZbRsS5MFosydUlh-153" value="" style="endArrow=classic;html=1;rounded=0;fontFamily=Verdana;fontSize=11;strokeColor=#00FF00;" parent="1" edge="1">
          <mxGeometry width="50" height="50" relative="1" as="geometry">
            <mxPoint x="4267" y="618" as="sourcePoint" />
            <mxPoint x="4267.3099999999995" y="668" as="targetPoint" />
          </mxGeometry>
        </mxCell>
        <mxCell id="44cg_ZbRsS5MFosydUlh-154" value="4.1p7" style="verticalLabelPosition=bottom;verticalAlign=top;html=1;shape=hexagon;perimeter=hexagonPerimeter2;arcSize=6;size=0.27;fillColor=#4D4D4D;" parent="1" vertex="1">
          <mxGeometry x="4676" y="670" width="20" height="20" as="geometry" />
        </mxCell>
        <mxCell id="44cg_ZbRsS5MFosydUlh-155" value="4.1.p8" style="verticalLabelPosition=bottom;verticalAlign=top;html=1;shape=hexagon;perimeter=hexagonPerimeter2;arcSize=6;size=0.27;fillColor=#00FF00;" parent="1" vertex="1">
          <mxGeometry x="4722" y="670.5" width="20" height="20" as="geometry" />
        </mxCell>
        <mxCell id="44cg_ZbRsS5MFosydUlh-156" value="4.1.p9" style="verticalLabelPosition=bottom;verticalAlign=top;html=1;shape=hexagon;perimeter=hexagonPerimeter2;arcSize=6;size=0.27;fillColor=#FF8000;" parent="1" vertex="1">
          <mxGeometry x="4772" y="671" width="20" height="20" as="geometry" />
        </mxCell>
        <mxCell id="44cg_ZbRsS5MFosydUlh-157" value="" style="endArrow=none;dashed=1;html=1;rounded=0;fontFamily=Verdana;fontSize=16;entryX=0.5;entryY=1;entryDx=0;entryDy=0;" parent="1" target="44cg_ZbRsS5MFosydUlh-155" edge="1">
          <mxGeometry width="50" height="50" relative="1" as="geometry">
            <mxPoint x="4622" y="701" as="sourcePoint" />
            <mxPoint x="4779.5" y="678" as="targetPoint" />
            <Array as="points">
              <mxPoint x="4622" y="748" />
              <mxPoint x="4732" y="750" />
            </Array>
          </mxGeometry>
        </mxCell>
        <mxCell id="44cg_ZbRsS5MFosydUlh-158" value="hacerxxxxxxxxxxxx" style="edgeLabel;html=1;align=center;verticalAlign=middle;resizable=0;points=[];fontSize=10;fontFamily=Verdana;" parent="44cg_ZbRsS5MFosydUlh-157" vertex="1" connectable="0">
          <mxGeometry x="-0.1256" y="-1" relative="1" as="geometry">
            <mxPoint as="offset" />
          </mxGeometry>
        </mxCell>
        <mxCell id="44cg_ZbRsS5MFosydUlh-159" value="" style="endArrow=classic;html=1;rounded=0;fontFamily=Verdana;fontSize=11;strokeColor=#00FF00;" parent="1" edge="1">
          <mxGeometry width="50" height="50" relative="1" as="geometry">
            <mxPoint x="4622" y="619.9999999999995" as="sourcePoint" />
            <mxPoint x="4622.3099999999995" y="669.9999999999995" as="targetPoint" />
          </mxGeometry>
        </mxCell>
        <mxCell id="44cg_ZbRsS5MFosydUlh-162" value="3.1" style="verticalLabelPosition=bottom;verticalAlign=top;html=1;shape=hexagon;perimeter=hexagonPerimeter2;arcSize=6;size=0.27;fillColor=#FF99FF;" parent="1" vertex="1">
          <mxGeometry x="4212" y="56.5" width="20" height="20" as="geometry" />
        </mxCell>
        <mxCell id="44cg_ZbRsS5MFosydUlh-164" value="3.2" style="verticalLabelPosition=bottom;verticalAlign=top;html=1;shape=hexagon;perimeter=hexagonPerimeter2;arcSize=6;size=0.27;fillColor=#FF99FF;" parent="1" vertex="1">
          <mxGeometry x="4772" y="56.5" width="20" height="20" as="geometry" />
        </mxCell>
        <mxCell id="44cg_ZbRsS5MFosydUlh-166" value="3.1.p40" style="verticalLabelPosition=bottom;verticalAlign=top;html=1;shape=hexagon;perimeter=hexagonPerimeter2;arcSize=6;size=0.27;fillColor=#FF8000;" parent="1" vertex="1">
          <mxGeometry x="4168.5" y="669.5" width="20" height="20" as="geometry" />
        </mxCell>
        <mxCell id="44cg_ZbRsS5MFosydUlh-183" value="2.9" style="verticalLabelPosition=bottom;verticalAlign=top;html=1;shape=hexagon;perimeter=hexagonPerimeter2;arcSize=6;size=0.27;fillColor=#FF99FF;" parent="1" vertex="1">
          <mxGeometry x="3916" y="205" width="20" height="20" as="geometry" />
        </mxCell>
        <mxCell id="44cg_ZbRsS5MFosydUlh-185" value="3.1.p37" style="verticalLabelPosition=bottom;verticalAlign=top;html=1;shape=hexagon;perimeter=hexagonPerimeter2;arcSize=6;size=0.27;fillColor=#FF8000;" parent="1" vertex="1">
          <mxGeometry x="3916" y="670.5" width="20" height="20" as="geometry" />
        </mxCell>
        <mxCell id="44cg_ZbRsS5MFosydUlh-187" value="2.1.p5" style="verticalLabelPosition=bottom;verticalAlign=top;html=1;shape=hexagon;perimeter=hexagonPerimeter2;arcSize=6;size=0.27;fillColor=#00FF00;" parent="1" vertex="1">
          <mxGeometry x="950" y="670.5" width="20" height="20" as="geometry" />
        </mxCell>
        <mxCell id="44cg_ZbRsS5MFosydUlh-188" value="2.1.p6" style="verticalLabelPosition=bottom;verticalAlign=top;html=1;shape=hexagon;perimeter=hexagonPerimeter2;arcSize=6;size=0.27;fillColor=#FF9933;" parent="1" vertex="1">
          <mxGeometry x="990" y="670" width="20" height="20" as="geometry" />
        </mxCell>
        <mxCell id="44cg_ZbRsS5MFosydUlh-191" value="emisión de una&lt;br&gt;versión de prueba&lt;br&gt;intermedia" style="verticalLabelPosition=bottom;verticalAlign=top;html=1;shape=hexagon;perimeter=hexagonPerimeter2;arcSize=6;size=0.27;fillColor=#4D4D4D;" parent="1" vertex="1">
          <mxGeometry x="150" y="225" width="20" height="20" as="geometry" />
        </mxCell>
        <mxCell id="44cg_ZbRsS5MFosydUlh-205" value="etc, etc," style="text;html=1;resizable=0;autosize=1;align=center;verticalAlign=middle;points=[];fillColor=none;strokeColor=none;rounded=0;" parent="1" vertex="1">
          <mxGeometry x="4995" y="688" width="60" height="20" as="geometry" />
        </mxCell>
        <mxCell id="c-PLfBMYaJrc-yPKH7Jv-2" value="1.1.p4.c1" style="verticalLabelPosition=bottom;verticalAlign=top;html=1;shape=hexagon;perimeter=hexagonPerimeter2;arcSize=6;size=0.27;fillColor=#999999;fontSize=6;" parent="1" vertex="1">
          <mxGeometry x="300" y="675" width="10" height="10" as="geometry" />
        </mxCell>
        <mxCell id="c-PLfBMYaJrc-yPKH7Jv-3" value="1.1.p6.c1" style="verticalLabelPosition=bottom;verticalAlign=top;html=1;shape=hexagon;perimeter=hexagonPerimeter2;arcSize=6;size=0.27;fillColor=#999999;fontSize=6;" parent="1" vertex="1">
          <mxGeometry x="420" y="675" width="10" height="10" as="geometry" />
        </mxCell>
        <mxCell id="c-PLfBMYaJrc-yPKH7Jv-4" value="1.1.p7.c1" style="verticalLabelPosition=bottom;verticalAlign=top;html=1;shape=hexagon;perimeter=hexagonPerimeter2;arcSize=6;size=0.27;fillColor=#999999;fontSize=6;" parent="1" vertex="1">
          <mxGeometry x="473" y="675" width="10" height="10" as="geometry" />
        </mxCell>
        <mxCell id="c-PLfBMYaJrc-yPKH7Jv-5" value="1.1.p8.c1" style="verticalLabelPosition=bottom;verticalAlign=top;html=1;shape=hexagon;perimeter=hexagonPerimeter2;arcSize=6;size=0.27;fillColor=#999999;fontSize=6;" parent="1" vertex="1">
          <mxGeometry x="515" y="675" width="10" height="10" as="geometry" />
        </mxCell>
        <mxCell id="c-PLfBMYaJrc-yPKH7Jv-6" value="1.1.p9.c1" style="verticalLabelPosition=bottom;verticalAlign=top;html=1;shape=hexagon;perimeter=hexagonPerimeter2;arcSize=6;size=0.27;fillColor=#999999;fontSize=6;" parent="1" vertex="1">
          <mxGeometry x="560" y="674" width="10" height="10" as="geometry" />
        </mxCell>
        <mxCell id="c-PLfBMYaJrc-yPKH7Jv-7" value="2.1.p2.c1" style="verticalLabelPosition=bottom;verticalAlign=top;html=1;shape=hexagon;perimeter=hexagonPerimeter2;arcSize=6;size=0.27;fillColor=#999999;fontSize=6;" parent="1" vertex="1">
          <mxGeometry x="720" y="675.5" width="10" height="10" as="geometry" />
        </mxCell>
        <mxCell id="c-PLfBMYaJrc-yPKH7Jv-8" value="2.1.p3.c1" style="verticalLabelPosition=bottom;verticalAlign=top;html=1;shape=hexagon;perimeter=hexagonPerimeter2;arcSize=6;size=0.27;fillColor=#999999;fontSize=6;" parent="1" vertex="1">
          <mxGeometry x="795" y="675.5" width="10" height="10" as="geometry" />
        </mxCell>
        <mxCell id="c-PLfBMYaJrc-yPKH7Jv-9" value="2.1.p5.c1" style="verticalLabelPosition=bottom;verticalAlign=top;html=1;shape=hexagon;perimeter=hexagonPerimeter2;arcSize=6;size=0.27;fillColor=#999999;fontSize=6;" parent="1" vertex="1">
          <mxGeometry x="930" y="675" width="10" height="10" as="geometry" />
        </mxCell>
        <mxCell id="c-PLfBMYaJrc-yPKH7Jv-10" value="2.1.p6.c1" style="verticalLabelPosition=bottom;verticalAlign=top;html=1;shape=hexagon;perimeter=hexagonPerimeter2;arcSize=6;size=0.27;fillColor=#999999;fontSize=6;" parent="1" vertex="1">
          <mxGeometry x="970" y="675" width="10" height="10" as="geometry" />
        </mxCell>
        <mxCell id="c-PLfBMYaJrc-yPKH7Jv-11" value="2.1.p7.c1" style="verticalLabelPosition=bottom;verticalAlign=top;html=1;shape=hexagon;perimeter=hexagonPerimeter2;arcSize=6;size=0.27;fillColor=#999999;fontSize=6;" parent="1" vertex="1">
          <mxGeometry x="1010" y="675" width="10" height="10" as="geometry" />
        </mxCell>
        <mxCell id="c-PLfBMYaJrc-yPKH7Jv-12" value="2.1.p8.c1" style="verticalLabelPosition=bottom;verticalAlign=top;html=1;shape=hexagon;perimeter=hexagonPerimeter2;arcSize=6;size=0.27;fillColor=#999999;fontSize=6;" parent="1" vertex="1">
          <mxGeometry x="1050" y="675.5" width="10" height="10" as="geometry" />
        </mxCell>
        <mxCell id="c-PLfBMYaJrc-yPKH7Jv-13" value="2.1.p9.c1" style="verticalLabelPosition=bottom;verticalAlign=top;html=1;shape=hexagon;perimeter=hexagonPerimeter2;arcSize=6;size=0.27;fillColor=#999999;fontSize=6;" parent="1" vertex="1">
          <mxGeometry x="1110" y="674.5" width="10" height="10" as="geometry" />
        </mxCell>
        <mxCell id="c-PLfBMYaJrc-yPKH7Jv-16" value="2.1.p10.c1" style="verticalLabelPosition=bottom;verticalAlign=top;html=1;shape=hexagon;perimeter=hexagonPerimeter2;arcSize=6;size=0.27;fillColor=#999999;fontSize=6;" parent="1" vertex="1">
          <mxGeometry x="1220" y="675" width="10" height="10" as="geometry" />
        </mxCell>
        <mxCell id="c-PLfBMYaJrc-yPKH7Jv-17" value="2.1.p11.c1" style="verticalLabelPosition=bottom;verticalAlign=top;html=1;shape=hexagon;perimeter=hexagonPerimeter2;arcSize=6;size=0.27;fillColor=#999999;fontSize=6;" parent="1" vertex="1">
          <mxGeometry x="1270" y="675" width="10" height="10" as="geometry" />
        </mxCell>
        <mxCell id="c-PLfBMYaJrc-yPKH7Jv-18" value="1.5.2.1" style="verticalLabelPosition=bottom;verticalAlign=top;html=1;shape=hexagon;perimeter=hexagonPerimeter2;arcSize=6;size=0.27;fillColor=#999999;fontSize=6;" parent="1" vertex="1">
          <mxGeometry x="1330" y="415" width="10" height="10" as="geometry" />
        </mxCell>
        <mxCell id="c-PLfBMYaJrc-yPKH7Jv-19" value="2.1.p12.c1" style="verticalLabelPosition=bottom;verticalAlign=top;html=1;shape=hexagon;perimeter=hexagonPerimeter2;arcSize=6;size=0.27;fillColor=#999999;fontSize=6;" parent="1" vertex="1">
          <mxGeometry x="1360" y="675.5" width="10" height="10" as="geometry" />
        </mxCell>
        <mxCell id="c-PLfBMYaJrc-yPKH7Jv-20" value="2.1.p12.c1" style="verticalLabelPosition=bottom;verticalAlign=top;html=1;shape=hexagon;perimeter=hexagonPerimeter2;arcSize=6;size=0.27;fillColor=#999999;fontSize=6;" parent="1" vertex="1">
          <mxGeometry x="1476" y="675.5" width="10" height="10" as="geometry" />
        </mxCell>
        <mxCell id="c-PLfBMYaJrc-yPKH7Jv-22" value="2.1.p13.c1" style="verticalLabelPosition=bottom;verticalAlign=top;html=1;shape=hexagon;perimeter=hexagonPerimeter2;arcSize=6;size=0.27;fillColor=#999999;fontSize=6;" parent="1" vertex="1">
          <mxGeometry x="1552" y="674" width="10" height="10" as="geometry" />
        </mxCell>
        <mxCell id="c-PLfBMYaJrc-yPKH7Jv-23" value="2.1.p14.c1" style="verticalLabelPosition=bottom;verticalAlign=top;html=1;shape=hexagon;perimeter=hexagonPerimeter2;arcSize=6;size=0.27;fillColor=#999999;fontSize=6;" parent="1" vertex="1">
          <mxGeometry x="1630" y="674.5" width="10" height="10" as="geometry" />
        </mxCell>
        <mxCell id="c-PLfBMYaJrc-yPKH7Jv-24" value="2.1.p15.c1" style="verticalLabelPosition=bottom;verticalAlign=top;html=1;shape=hexagon;perimeter=hexagonPerimeter2;arcSize=6;size=0.27;fillColor=#999999;fontSize=6;" parent="1" vertex="1">
          <mxGeometry x="1680" y="675" width="10" height="10" as="geometry" />
        </mxCell>
        <mxCell id="c-PLfBMYaJrc-yPKH7Jv-25" value="3.1.p1.c1" style="verticalLabelPosition=bottom;verticalAlign=top;html=1;shape=hexagon;perimeter=hexagonPerimeter2;arcSize=6;size=0.27;fillColor=#999999;fontSize=6;" parent="1" vertex="1">
          <mxGeometry x="1720" y="675.5" width="10" height="10" as="geometry" />
        </mxCell>
        <mxCell id="c-PLfBMYaJrc-yPKH7Jv-26" value="3.1.p2.c1" style="verticalLabelPosition=bottom;verticalAlign=top;html=1;shape=hexagon;perimeter=hexagonPerimeter2;arcSize=6;size=0.27;fillColor=#999999;fontSize=6;" parent="1" vertex="1">
          <mxGeometry x="1800" y="675" width="10" height="10" as="geometry" />
        </mxCell>
        <mxCell id="c-PLfBMYaJrc-yPKH7Jv-27" value="3.1.p3.c1" style="verticalLabelPosition=bottom;verticalAlign=top;html=1;shape=hexagon;perimeter=hexagonPerimeter2;arcSize=6;size=0.27;fillColor=#999999;fontSize=6;" parent="1" vertex="1">
          <mxGeometry x="1870" y="674" width="10" height="10" as="geometry" />
        </mxCell>
        <mxCell id="c-PLfBMYaJrc-yPKH7Jv-28" value="3.1.p4.c1" style="verticalLabelPosition=bottom;verticalAlign=top;html=1;shape=hexagon;perimeter=hexagonPerimeter2;arcSize=6;size=0.27;fillColor=#999999;fontSize=6;" parent="1" vertex="1">
          <mxGeometry x="1920" y="675" width="10" height="10" as="geometry" />
        </mxCell>
        <mxCell id="c-PLfBMYaJrc-yPKH7Jv-29" value="3.1.p5.c1" style="verticalLabelPosition=bottom;verticalAlign=top;html=1;shape=hexagon;perimeter=hexagonPerimeter2;arcSize=6;size=0.27;fillColor=#999999;fontSize=6;" parent="1" vertex="1">
          <mxGeometry x="2060" y="675" width="10" height="10" as="geometry" />
        </mxCell>
        <mxCell id="c-PLfBMYaJrc-yPKH7Jv-30" value="3.1.p6.c1" style="verticalLabelPosition=bottom;verticalAlign=top;html=1;shape=hexagon;perimeter=hexagonPerimeter2;arcSize=6;size=0.27;fillColor=#999999;fontSize=6;" parent="1" vertex="1">
          <mxGeometry x="2140" y="676" width="10" height="10" as="geometry" />
        </mxCell>
        <mxCell id="c-PLfBMYaJrc-yPKH7Jv-31" value="3.1.p7.c1" style="verticalLabelPosition=bottom;verticalAlign=top;html=1;shape=hexagon;perimeter=hexagonPerimeter2;arcSize=6;size=0.27;fillColor=#999999;fontSize=6;" parent="1" vertex="1">
          <mxGeometry x="2260" y="675" width="10" height="10" as="geometry" />
        </mxCell>
        <mxCell id="c-PLfBMYaJrc-yPKH7Jv-32" value="3.1.p8.c1" style="verticalLabelPosition=bottom;verticalAlign=top;html=1;shape=hexagon;perimeter=hexagonPerimeter2;arcSize=6;size=0.27;fillColor=#999999;fontSize=6;" parent="1" vertex="1">
          <mxGeometry x="2320" y="675" width="10" height="10" as="geometry" />
        </mxCell>
        <mxCell id="c-PLfBMYaJrc-yPKH7Jv-33" value="3.1.p9.c1" style="verticalLabelPosition=bottom;verticalAlign=top;html=1;shape=hexagon;perimeter=hexagonPerimeter2;arcSize=6;size=0.27;fillColor=#999999;fontSize=6;" parent="1" vertex="1">
          <mxGeometry x="2360" y="674.5" width="10" height="10" as="geometry" />
        </mxCell>
        <mxCell id="c-PLfBMYaJrc-yPKH7Jv-34" value="3.1.p10.c1" style="verticalLabelPosition=bottom;verticalAlign=top;html=1;shape=hexagon;perimeter=hexagonPerimeter2;arcSize=6;size=0.27;fillColor=#999999;fontSize=6;" parent="1" vertex="1">
          <mxGeometry x="2409" y="675" width="10" height="10" as="geometry" />
        </mxCell>
        <mxCell id="c-PLfBMYaJrc-yPKH7Jv-35" value="3.1.p11.c1" style="verticalLabelPosition=bottom;verticalAlign=top;html=1;shape=hexagon;perimeter=hexagonPerimeter2;arcSize=6;size=0.27;fillColor=#999999;fontSize=6;" parent="1" vertex="1">
          <mxGeometry x="2480" y="675.5" width="10" height="10" as="geometry" />
        </mxCell>
        <mxCell id="c-PLfBMYaJrc-yPKH7Jv-36" value="3.1.p12.c1" style="verticalLabelPosition=bottom;verticalAlign=top;html=1;shape=hexagon;perimeter=hexagonPerimeter2;arcSize=6;size=0.27;fillColor=#999999;fontSize=6;" parent="1" vertex="1">
          <mxGeometry x="2520" y="675" width="10" height="10" as="geometry" />
        </mxCell>
        <mxCell id="c-PLfBMYaJrc-yPKH7Jv-37" value="3.1.p13.c1" style="verticalLabelPosition=bottom;verticalAlign=top;html=1;shape=hexagon;perimeter=hexagonPerimeter2;arcSize=6;size=0.27;fillColor=#999999;fontSize=6;" parent="1" vertex="1">
          <mxGeometry x="2570" y="675" width="10" height="10" as="geometry" />
        </mxCell>
        <mxCell id="c-PLfBMYaJrc-yPKH7Jv-38" value="3.1.p16.c1" style="verticalLabelPosition=bottom;verticalAlign=top;html=1;shape=hexagon;perimeter=hexagonPerimeter2;arcSize=6;size=0.27;fillColor=#999999;fontSize=6;" parent="1" vertex="1">
          <mxGeometry x="2665" y="674.5" width="10" height="10" as="geometry" />
        </mxCell>
        <mxCell id="c-PLfBMYaJrc-yPKH7Jv-40" value="3.1.p17.c1" style="verticalLabelPosition=bottom;verticalAlign=top;html=1;shape=hexagon;perimeter=hexagonPerimeter2;arcSize=6;size=0.27;fillColor=#999999;fontSize=6;" parent="1" vertex="1">
          <mxGeometry x="2745" y="674.5" width="10" height="10" as="geometry" />
        </mxCell>
        <mxCell id="c-PLfBMYaJrc-yPKH7Jv-41" value="3.1.p18.c1" style="verticalLabelPosition=bottom;verticalAlign=top;html=1;shape=hexagon;perimeter=hexagonPerimeter2;arcSize=6;size=0.27;fillColor=#999999;fontSize=6;" parent="1" vertex="1">
          <mxGeometry x="2800" y="674.5" width="10" height="10" as="geometry" />
        </mxCell>
        <mxCell id="c-PLfBMYaJrc-yPKH7Jv-42" value="3.1.p19.c1" style="verticalLabelPosition=bottom;verticalAlign=top;html=1;shape=hexagon;perimeter=hexagonPerimeter2;arcSize=6;size=0.27;fillColor=#999999;fontSize=6;" parent="1" vertex="1">
          <mxGeometry x="2860" y="675" width="10" height="10" as="geometry" />
        </mxCell>
        <mxCell id="c-PLfBMYaJrc-yPKH7Jv-43" value="3.1.p20.c1" style="verticalLabelPosition=bottom;verticalAlign=top;html=1;shape=hexagon;perimeter=hexagonPerimeter2;arcSize=6;size=0.27;fillColor=#999999;fontSize=6;" parent="1" vertex="1">
          <mxGeometry x="2925" y="675" width="10" height="10" as="geometry" />
        </mxCell>
        <mxCell id="c-PLfBMYaJrc-yPKH7Jv-44" value="3.1.p21.c1" style="verticalLabelPosition=bottom;verticalAlign=top;html=1;shape=hexagon;perimeter=hexagonPerimeter2;arcSize=6;size=0.27;fillColor=#999999;fontSize=6;" parent="1" vertex="1">
          <mxGeometry x="3005" y="674.5" width="10" height="10" as="geometry" />
        </mxCell>
        <mxCell id="c-PLfBMYaJrc-yPKH7Jv-45" value="3.1.p22.c1" style="verticalLabelPosition=bottom;verticalAlign=top;html=1;shape=hexagon;perimeter=hexagonPerimeter2;arcSize=6;size=0.27;fillColor=#999999;fontSize=6;" parent="1" vertex="1">
          <mxGeometry x="3060" y="674.5" width="10" height="10" as="geometry" />
        </mxCell>
        <mxCell id="c-PLfBMYaJrc-yPKH7Jv-46" value="3.1.p23.c1" style="verticalLabelPosition=bottom;verticalAlign=top;html=1;shape=hexagon;perimeter=hexagonPerimeter2;arcSize=6;size=0.27;fillColor=#999999;fontSize=6;" parent="1" vertex="1">
          <mxGeometry x="3105" y="675.5" width="10" height="10" as="geometry" />
        </mxCell>
        <mxCell id="c-PLfBMYaJrc-yPKH7Jv-47" value="3.1.p24.c1" style="verticalLabelPosition=bottom;verticalAlign=top;html=1;shape=hexagon;perimeter=hexagonPerimeter2;arcSize=6;size=0.27;fillColor=#999999;fontSize=6;" parent="1" vertex="1">
          <mxGeometry x="3150" y="675" width="10" height="10" as="geometry" />
        </mxCell>
        <mxCell id="c-PLfBMYaJrc-yPKH7Jv-48" value="3.1.p26.c1" style="verticalLabelPosition=bottom;verticalAlign=top;html=1;shape=hexagon;perimeter=hexagonPerimeter2;arcSize=6;size=0.27;fillColor=#999999;fontSize=6;" parent="1" vertex="1">
          <mxGeometry x="3194" y="675" width="10" height="10" as="geometry" />
        </mxCell>
        <mxCell id="c-PLfBMYaJrc-yPKH7Jv-49" value="3.1.p27.c1" style="verticalLabelPosition=bottom;verticalAlign=top;html=1;shape=hexagon;perimeter=hexagonPerimeter2;arcSize=6;size=0.27;fillColor=#999999;fontSize=6;" parent="1" vertex="1">
          <mxGeometry x="3244" y="675" width="10" height="10" as="geometry" />
        </mxCell>
        <mxCell id="c-PLfBMYaJrc-yPKH7Jv-50" value="3.1.p28.c1" style="verticalLabelPosition=bottom;verticalAlign=top;html=1;shape=hexagon;perimeter=hexagonPerimeter2;arcSize=6;size=0.27;fillColor=#999999;fontSize=6;" parent="1" vertex="1">
          <mxGeometry x="3330" y="674" width="10" height="10" as="geometry" />
        </mxCell>
        <mxCell id="c-PLfBMYaJrc-yPKH7Jv-51" value="3.1.p29.c1" style="verticalLabelPosition=bottom;verticalAlign=top;html=1;shape=hexagon;perimeter=hexagonPerimeter2;arcSize=6;size=0.27;fillColor=#999999;fontSize=6;" parent="1" vertex="1">
          <mxGeometry x="3400" y="674" width="10" height="10" as="geometry" />
        </mxCell>
        <mxCell id="c-PLfBMYaJrc-yPKH7Jv-52" value="3.1.p30.c1" style="verticalLabelPosition=bottom;verticalAlign=top;html=1;shape=hexagon;perimeter=hexagonPerimeter2;arcSize=6;size=0.27;fillColor=#999999;fontSize=6;" parent="1" vertex="1">
          <mxGeometry x="3450" y="675.5" width="10" height="10" as="geometry" />
        </mxCell>
        <mxCell id="c-PLfBMYaJrc-yPKH7Jv-53" value="3.1.p31.c1" style="verticalLabelPosition=bottom;verticalAlign=top;html=1;shape=hexagon;perimeter=hexagonPerimeter2;arcSize=6;size=0.27;fillColor=#999999;fontSize=6;" parent="1" vertex="1">
          <mxGeometry x="3493" y="675" width="10" height="10" as="geometry" />
        </mxCell>
        <mxCell id="c-PLfBMYaJrc-yPKH7Jv-54" value="3.1.p32.c1" style="verticalLabelPosition=bottom;verticalAlign=top;html=1;shape=hexagon;perimeter=hexagonPerimeter2;arcSize=6;size=0.27;fillColor=#999999;fontSize=6;" parent="1" vertex="1">
          <mxGeometry x="3560" y="674.5" width="10" height="10" as="geometry" />
        </mxCell>
        <mxCell id="c-PLfBMYaJrc-yPKH7Jv-56" value="3.1.p33.c1" style="verticalLabelPosition=bottom;verticalAlign=top;html=1;shape=hexagon;perimeter=hexagonPerimeter2;arcSize=6;size=0.27;fillColor=#999999;fontSize=6;" parent="1" vertex="1">
          <mxGeometry x="3636" y="675.5" width="10" height="10" as="geometry" />
        </mxCell>
        <mxCell id="c-PLfBMYaJrc-yPKH7Jv-57" value="3.1.p34.c1" style="verticalLabelPosition=bottom;verticalAlign=top;html=1;shape=hexagon;perimeter=hexagonPerimeter2;arcSize=6;size=0.27;fillColor=#999999;fontSize=6;" parent="1" vertex="1">
          <mxGeometry x="3716" y="674.5" width="10" height="10" as="geometry" />
        </mxCell>
        <mxCell id="c-PLfBMYaJrc-yPKH7Jv-58" value="3.1.p35.c1" style="verticalLabelPosition=bottom;verticalAlign=top;html=1;shape=hexagon;perimeter=hexagonPerimeter2;arcSize=6;size=0.27;fillColor=#999999;fontSize=6;" parent="1" vertex="1">
          <mxGeometry x="3778" y="672.5" width="10" height="10" as="geometry" />
        </mxCell>
        <mxCell id="c-PLfBMYaJrc-yPKH7Jv-59" value="3.1.p36.c1" style="verticalLabelPosition=bottom;verticalAlign=top;html=1;shape=hexagon;perimeter=hexagonPerimeter2;arcSize=6;size=0.27;fillColor=#999999;fontSize=6;" parent="1" vertex="1">
          <mxGeometry x="3840.5" y="672.5" width="10" height="10" as="geometry" />
        </mxCell>
        <mxCell id="c-PLfBMYaJrc-yPKH7Jv-60" value="3.1.p37.c1" style="verticalLabelPosition=bottom;verticalAlign=top;html=1;shape=hexagon;perimeter=hexagonPerimeter2;arcSize=6;size=0.27;fillColor=#999999;fontSize=6;" parent="1" vertex="1">
          <mxGeometry x="3896" y="674" width="10" height="10" as="geometry" />
        </mxCell>
        <mxCell id="c-PLfBMYaJrc-yPKH7Jv-61" value="3.1.p38.c1" style="verticalLabelPosition=bottom;verticalAlign=top;html=1;shape=hexagon;perimeter=hexagonPerimeter2;arcSize=6;size=0.27;fillColor=#999999;fontSize=6;" parent="1" vertex="1">
          <mxGeometry x="3936" y="675" width="10" height="10" as="geometry" />
        </mxCell>
        <mxCell id="c-PLfBMYaJrc-yPKH7Jv-63" value="3.1.p39.c1" style="verticalLabelPosition=bottom;verticalAlign=top;html=1;shape=hexagon;perimeter=hexagonPerimeter2;arcSize=6;size=0.27;fillColor=#999999;fontSize=6;" parent="1" vertex="1">
          <mxGeometry x="4020" y="675" width="10" height="10" as="geometry" />
        </mxCell>
        <mxCell id="c-PLfBMYaJrc-yPKH7Jv-64" value="3.1.p40.c1" style="verticalLabelPosition=bottom;verticalAlign=top;html=1;shape=hexagon;perimeter=hexagonPerimeter2;arcSize=6;size=0.27;fillColor=#999999;fontSize=6;" parent="1" vertex="1">
          <mxGeometry x="4130" y="675" width="10" height="10" as="geometry" />
        </mxCell>
        <mxCell id="c-PLfBMYaJrc-yPKH7Jv-66" value="3.1.p41.c1" style="verticalLabelPosition=bottom;verticalAlign=top;html=1;shape=hexagon;perimeter=hexagonPerimeter2;arcSize=6;size=0.27;fillColor=#999999;fontSize=6;" parent="1" vertex="1">
          <mxGeometry x="4188.5" y="675" width="10" height="10" as="geometry" />
        </mxCell>
        <mxCell id="c-PLfBMYaJrc-yPKH7Jv-67" value="4.1.p1.1" style="verticalLabelPosition=bottom;verticalAlign=top;html=1;shape=hexagon;perimeter=hexagonPerimeter2;arcSize=6;size=0.27;fillColor=#999999;fontSize=6;" parent="1" vertex="1">
          <mxGeometry x="4232" y="675.5" width="10" height="10" as="geometry" />
        </mxCell>
        <mxCell id="c-PLfBMYaJrc-yPKH7Jv-68" value="4.1.p2.c1" style="verticalLabelPosition=bottom;verticalAlign=top;html=1;shape=hexagon;perimeter=hexagonPerimeter2;arcSize=6;size=0.27;fillColor=#999999;fontSize=6;" parent="1" vertex="1">
          <mxGeometry x="4312" y="675" width="10" height="10" as="geometry" />
        </mxCell>
        <mxCell id="c-PLfBMYaJrc-yPKH7Jv-69" value="4.1.p3.c1" style="verticalLabelPosition=bottom;verticalAlign=top;html=1;shape=hexagon;perimeter=hexagonPerimeter2;arcSize=6;size=0.27;fillColor=#999999;fontSize=6;" parent="1" vertex="1">
          <mxGeometry x="4382" y="675.5" width="10" height="10" as="geometry" />
        </mxCell>
        <mxCell id="c-PLfBMYaJrc-yPKH7Jv-70" value="4.1.p4.c1" style="verticalLabelPosition=bottom;verticalAlign=top;html=1;shape=hexagon;perimeter=hexagonPerimeter2;arcSize=6;size=0.27;fillColor=#999999;fontSize=6;" parent="1" vertex="1">
          <mxGeometry x="4450" y="674.5" width="10" height="10" as="geometry" />
        </mxCell>
        <mxCell id="c-PLfBMYaJrc-yPKH7Jv-72" value="4.1.p5.c1" style="verticalLabelPosition=bottom;verticalAlign=top;html=1;shape=hexagon;perimeter=hexagonPerimeter2;arcSize=6;size=0.27;fillColor=#999999;fontSize=6;" parent="1" vertex="1">
          <mxGeometry x="4502" y="675.5" width="10" height="10" as="geometry" />
        </mxCell>
        <mxCell id="c-PLfBMYaJrc-yPKH7Jv-73" value="4.1.p6.c1" style="verticalLabelPosition=bottom;verticalAlign=top;html=1;shape=hexagon;perimeter=hexagonPerimeter2;arcSize=6;size=0.27;fillColor=#999999;fontSize=6;" parent="1" vertex="1">
          <mxGeometry x="4552" y="675.5" width="10" height="10" as="geometry" />
        </mxCell>
        <mxCell id="c-PLfBMYaJrc-yPKH7Jv-74" value="4.1.p7.c1" style="verticalLabelPosition=bottom;verticalAlign=top;html=1;shape=hexagon;perimeter=hexagonPerimeter2;arcSize=6;size=0.27;fillColor=#999999;fontSize=6;" parent="1" vertex="1">
          <mxGeometry x="4592" y="675.5" width="10" height="10" as="geometry" />
        </mxCell>
        <mxCell id="c-PLfBMYaJrc-yPKH7Jv-75" value="4.1.p8.c1" style="verticalLabelPosition=bottom;verticalAlign=top;html=1;shape=hexagon;perimeter=hexagonPerimeter2;arcSize=6;size=0.27;fillColor=#999999;fontSize=6;" parent="1" vertex="1">
          <mxGeometry x="4696" y="675" width="10" height="10" as="geometry" />
        </mxCell>
        <mxCell id="c-PLfBMYaJrc-yPKH7Jv-78" value="4.1.p9.c1" style="verticalLabelPosition=bottom;verticalAlign=top;html=1;shape=hexagon;perimeter=hexagonPerimeter2;arcSize=6;size=0.27;fillColor=#999999;fontSize=6;" parent="1" vertex="1">
          <mxGeometry x="4742" y="674.5" width="10" height="10" as="geometry" />
        </mxCell>
        <mxCell id="c-PLfBMYaJrc-yPKH7Jv-79" value="4.1.p10.c1" style="verticalLabelPosition=bottom;verticalAlign=top;html=1;shape=hexagon;perimeter=hexagonPerimeter2;arcSize=6;size=0.27;fillColor=#999999;fontSize=6;" parent="1" vertex="1">
          <mxGeometry x="4792" y="675.5" width="10" height="10" as="geometry" />
        </mxCell>
        <mxCell id="c-PLfBMYaJrc-yPKH7Jv-92" value="&lt;span&gt;Se han puesto entre paréntesis algunas versiones completas (X.Y.p.c)&lt;/span&gt;&lt;br&gt;&lt;span&gt;Pero en general se ha omitido .p y .c&amp;nbsp;&lt;/span&gt;&lt;br&gt;&lt;span&gt;al escribir solo X.Y.pN, se asume que es X.Y.pN.c0&lt;/span&gt;&lt;br&gt;&lt;span&gt;al escribir solo X.Y, se asume que es X.Y.p0.c0&lt;/span&gt;" style="text;html=1;resizable=0;autosize=1;align=left;verticalAlign=middle;points=[];fillColor=none;strokeColor=none;rounded=0;" parent="1" vertex="1">
          <mxGeometry x="105" y="545" width="391" height="70" as="geometry" />
        </mxCell>
        <mxCell id="irg5qpUJFcmLeme6m4ZS-1" value="-" style="text;html=1;resizable=0;autosize=1;align=center;verticalAlign=middle;points=[];fillColor=none;strokeColor=none;rounded=0;" parent="1" vertex="1">
          <mxGeometry x="60" width="20" height="20" as="geometry" />
        </mxCell>
        <mxCell id="1eO9ZDfBmJSRSXNZZZ9--1" value="1.1.p5.c1" style="verticalLabelPosition=bottom;verticalAlign=top;html=1;shape=hexagon;perimeter=hexagonPerimeter2;arcSize=6;size=0.27;fillColor=#999999;fontSize=6;" parent="1" vertex="1">
          <mxGeometry x="374.26" y="672.5" width="10" height="10" as="geometry" />
        </mxCell>
        <mxCell id="1eO9ZDfBmJSRSXNZZZ9--2" value="2.1.p1.c1" style="verticalLabelPosition=bottom;verticalAlign=top;html=1;shape=hexagon;perimeter=hexagonPerimeter2;arcSize=6;size=0.27;fillColor=#999999;fontSize=6;" parent="1" vertex="1">
          <mxGeometry x="640" y="675" width="10" height="10" as="geometry" />
        </mxCell>
        <mxCell id="1eO9ZDfBmJSRSXNZZZ9--3" value="1.2.p1&lt;br&gt;(1.2.p1.c0)" style="verticalLabelPosition=bottom;verticalAlign=top;html=1;shape=hexagon;perimeter=hexagonPerimeter2;arcSize=6;size=0.27;fillColor=#FF8000;" parent="1" vertex="1">
          <mxGeometry x="671" y="410.75" width="20" height="20" as="geometry" />
        </mxCell>
        <mxCell id="1eO9ZDfBmJSRSXNZZZ9--4" value="1.2.p2&lt;br&gt;(1.2.p2.c0)" style="verticalLabelPosition=bottom;verticalAlign=top;html=1;shape=hexagon;perimeter=hexagonPerimeter2;arcSize=6;size=0.27;fillColor=#FF8000;" parent="1" vertex="1">
          <mxGeometry x="741" y="410.25" width="20" height="20" as="geometry" />
        </mxCell>
        <mxCell id="1eO9ZDfBmJSRSXNZZZ9--5" value="1.2.p2.c1" style="verticalLabelPosition=bottom;verticalAlign=top;html=1;shape=hexagon;perimeter=hexagonPerimeter2;arcSize=6;size=0.27;fillColor=#999999;fontSize=6;" parent="1" vertex="1">
          <mxGeometry x="691" y="416.25" width="10" height="10" as="geometry" />
        </mxCell>
        <mxCell id="1eO9ZDfBmJSRSXNZZZ9--6" value="1.2.p3.c1" style="verticalLabelPosition=bottom;verticalAlign=top;html=1;shape=hexagon;perimeter=hexagonPerimeter2;arcSize=6;size=0.27;fillColor=#999999;fontSize=6;" parent="1" vertex="1">
          <mxGeometry x="761" y="415.75" width="10" height="10" as="geometry" />
        </mxCell>
        <mxCell id="1eO9ZDfBmJSRSXNZZZ9--8" value="1.2.p1.c1" style="verticalLabelPosition=bottom;verticalAlign=top;html=1;shape=hexagon;perimeter=hexagonPerimeter2;arcSize=6;size=0.27;fillColor=#999999;fontSize=6;" parent="1" vertex="1">
          <mxGeometry x="640" y="415.5" width="10" height="10" as="geometry" />
        </mxCell>
        <mxCell id="1eO9ZDfBmJSRSXNZZZ9--9" value="1.2.p3" style="verticalLabelPosition=bottom;verticalAlign=top;html=1;shape=hexagon;perimeter=hexagonPerimeter2;arcSize=6;size=0.27;fillColor=#FF8000;" parent="1" vertex="1">
          <mxGeometry x="810" y="410" width="20" height="20" as="geometry" />
        </mxCell>
        <mxCell id="1eO9ZDfBmJSRSXNZZZ9--10" value="1.2.p4.c1" style="verticalLabelPosition=bottom;verticalAlign=top;html=1;shape=hexagon;perimeter=hexagonPerimeter2;arcSize=6;size=0.27;fillColor=#999999;fontSize=6;" parent="1" vertex="1">
          <mxGeometry x="830" y="415.5" width="10" height="10" as="geometry" />
        </mxCell>
        <mxCell id="1eO9ZDfBmJSRSXNZZZ9--12" value="2.1.p4.c1" style="verticalLabelPosition=bottom;verticalAlign=top;html=1;shape=hexagon;perimeter=hexagonPerimeter2;arcSize=6;size=0.27;fillColor=#999999;fontSize=6;" parent="1" vertex="1">
          <mxGeometry x="885" y="675" width="10" height="10" as="geometry" />
        </mxCell>
        <mxCell id="1eO9ZDfBmJSRSXNZZZ9--14" value="" style="endArrow=none;dashed=1;html=1;rounded=0;fontFamily=Verdana;fontSize=16;" parent="1" edge="1">
          <mxGeometry width="50" height="50" relative="1" as="geometry">
            <mxPoint x="940" y="460" as="sourcePoint" />
            <mxPoint x="999" y="461" as="targetPoint" />
            <Array as="points">
              <mxPoint x="940" y="511" />
              <mxPoint x="999" y="511" />
            </Array>
          </mxGeometry>
        </mxCell>
        <mxCell id="1eO9ZDfBmJSRSXNZZZ9--15" value="arreglar errorxxxx" style="edgeLabel;html=1;align=center;verticalAlign=middle;resizable=0;points=[];fontSize=10;fontFamily=Verdana;" parent="1eO9ZDfBmJSRSXNZZZ9--14" vertex="1" connectable="0">
          <mxGeometry x="-0.1256" y="-1" relative="1" as="geometry">
            <mxPoint x="27" y="6" as="offset" />
          </mxGeometry>
        </mxCell>
        <mxCell id="1eO9ZDfBmJSRSXNZZZ9--16" value="" style="endArrow=classic;html=1;rounded=0;fontFamily=Verdana;fontSize=11;strokeColor=#FF8000;" parent="1" edge="1">
          <mxGeometry x="-0.3333" y="-35" width="50" height="50" relative="1" as="geometry">
            <mxPoint x="940" y="360" as="sourcePoint" />
            <mxPoint x="940" y="405" as="targetPoint" />
            <mxPoint as="offset" />
          </mxGeometry>
        </mxCell>
        <mxCell id="1eO9ZDfBmJSRSXNZZZ9--17" value="1.3.p1" style="verticalLabelPosition=bottom;verticalAlign=top;html=1;shape=hexagon;perimeter=hexagonPerimeter2;arcSize=6;size=0.27;fillColor=#FF8000;" parent="1" vertex="1">
          <mxGeometry x="960" y="410" width="20" height="20" as="geometry" />
        </mxCell>
        <mxCell id="1eO9ZDfBmJSRSXNZZZ9--18" value="1.3.p2.c1" style="verticalLabelPosition=bottom;verticalAlign=top;html=1;shape=hexagon;perimeter=hexagonPerimeter2;arcSize=6;size=0.27;fillColor=#999999;fontSize=6;" parent="1" vertex="1">
          <mxGeometry x="980" y="415.5" width="10" height="10" as="geometry" />
        </mxCell>
        <mxCell id="1eO9ZDfBmJSRSXNZZZ9--19" value="1.3.p1.c1" style="verticalLabelPosition=bottom;verticalAlign=top;html=1;shape=hexagon;perimeter=hexagonPerimeter2;arcSize=6;size=0.27;fillColor=#999999;fontSize=6;" parent="1" vertex="1">
          <mxGeometry x="936" y="415" width="10" height="10" as="geometry" />
        </mxCell>
        <mxCell id="1eO9ZDfBmJSRSXNZZZ9--20" value="1.3.p1.c1" style="verticalLabelPosition=bottom;verticalAlign=top;html=1;shape=hexagon;perimeter=hexagonPerimeter2;arcSize=6;size=0.27;fillColor=#999999;fontSize=6;" parent="1" vertex="1">
          <mxGeometry x="860" y="415" width="10" height="10" as="geometry" />
        </mxCell>
        <mxCell id="1eO9ZDfBmJSRSXNZZZ9--22" value="" style="endArrow=classic;html=1;rounded=0;fontFamily=Verdana;fontSize=11;strokeColor=#FF8000;" parent="1" edge="1">
          <mxGeometry x="-0.3333" y="-35" width="50" height="50" relative="1" as="geometry">
            <mxPoint x="1083.8" y="362.5" as="sourcePoint" />
            <mxPoint x="1083.8" y="407.5" as="targetPoint" />
            <mxPoint as="offset" />
          </mxGeometry>
        </mxCell>
        <mxCell id="1eO9ZDfBmJSRSXNZZZ9--23" value="1.4.p1&lt;br&gt;(1.4.p1.c0)" style="verticalLabelPosition=bottom;verticalAlign=top;html=1;shape=hexagon;perimeter=hexagonPerimeter2;arcSize=6;size=0.27;fillColor=#FF8000;" parent="1" vertex="1">
          <mxGeometry x="1099" y="410" width="20" height="20" as="geometry" />
        </mxCell>
        <mxCell id="1eO9ZDfBmJSRSXNZZZ9--24" value="1.4.p2" style="verticalLabelPosition=bottom;verticalAlign=top;html=1;shape=hexagon;perimeter=hexagonPerimeter2;arcSize=6;size=0.27;fillColor=#FF8000;" parent="1" vertex="1">
          <mxGeometry x="1164" y="409.5" width="20" height="20" as="geometry" />
        </mxCell>
        <mxCell id="1eO9ZDfBmJSRSXNZZZ9--25" value="1.4.p2.c1" style="verticalLabelPosition=bottom;verticalAlign=top;html=1;shape=hexagon;perimeter=hexagonPerimeter2;arcSize=6;size=0.27;fillColor=#999999;fontSize=6;" parent="1" vertex="1">
          <mxGeometry x="1119" y="415.5" width="10" height="10" as="geometry" />
        </mxCell>
        <mxCell id="1eO9ZDfBmJSRSXNZZZ9--26" value="1.4.p3.c1" style="verticalLabelPosition=bottom;verticalAlign=top;html=1;shape=hexagon;perimeter=hexagonPerimeter2;arcSize=6;size=0.27;fillColor=#999999;fontSize=6;" parent="1" vertex="1">
          <mxGeometry x="1184" y="415" width="10" height="10" as="geometry" />
        </mxCell>
        <mxCell id="1eO9ZDfBmJSRSXNZZZ9--27" value="1.4.p1.c1" style="verticalLabelPosition=bottom;verticalAlign=top;html=1;shape=hexagon;perimeter=hexagonPerimeter2;arcSize=6;size=0.27;fillColor=#999999;fontSize=6;" parent="1" vertex="1">
          <mxGeometry x="1079" y="415" width="10" height="10" as="geometry" />
        </mxCell>
        <mxCell id="1eO9ZDfBmJSRSXNZZZ9--28" value="1.2.p1.c1" style="verticalLabelPosition=bottom;verticalAlign=top;html=1;shape=hexagon;perimeter=hexagonPerimeter2;arcSize=6;size=0.27;fillColor=#999999;fontSize=6;" parent="1" vertex="1">
          <mxGeometry x="610" y="415.5" width="10" height="10" as="geometry" />
        </mxCell>
        <mxCell id="1eO9ZDfBmJSRSXNZZZ9--29" value="1.4.p1.c1" style="verticalLabelPosition=bottom;verticalAlign=top;html=1;shape=hexagon;perimeter=hexagonPerimeter2;arcSize=6;size=0.27;fillColor=#999999;fontSize=6;" parent="1" vertex="1">
          <mxGeometry x="1010" y="415" width="10" height="10" as="geometry" />
        </mxCell>
        <mxCell id="1eO9ZDfBmJSRSXNZZZ9--32" value="3.2.p1.c1" style="verticalLabelPosition=bottom;verticalAlign=top;html=1;shape=hexagon;perimeter=hexagonPerimeter2;arcSize=6;size=0.27;fillColor=#999999;fontSize=6;" parent="1" vertex="1">
          <mxGeometry x="4232" y="61.5" width="10" height="10" as="geometry" />
        </mxCell>
        <mxCell id="1eO9ZDfBmJSRSXNZZZ9--33" value="2.1.p9.c1" style="verticalLabelPosition=bottom;verticalAlign=top;html=1;shape=hexagon;perimeter=hexagonPerimeter2;arcSize=6;size=0.27;fillColor=#999999;fontSize=6;" parent="1" vertex="1">
          <mxGeometry x="1164" y="673.5" width="10" height="10" as="geometry" />
        </mxCell>
        <mxCell id="1eO9ZDfBmJSRSXNZZZ9--34" value="" style="endArrow=classic;html=1;rounded=0;fontFamily=Verdana;fontSize=11;strokeColor=#FF8000;" parent="1" edge="1">
          <mxGeometry x="-0.3333" y="-35" width="50" height="50" relative="1" as="geometry">
            <mxPoint x="1272.71" y="362" as="sourcePoint" />
            <mxPoint x="1272.71" y="407" as="targetPoint" />
            <mxPoint as="offset" />
          </mxGeometry>
        </mxCell>
        <mxCell id="-mpe2I_DCxZ04XdZVAOM-2" value="" style="endArrow=classic;html=1;rounded=0;fontFamily=Verdana;fontSize=11;strokeColor=#FF8000;" parent="1" edge="1">
          <mxGeometry width="50" height="50" relative="1" as="geometry">
            <mxPoint x="824.8000000000001" y="625" as="sourcePoint" />
            <mxPoint x="824.8000000000001" y="670" as="targetPoint" />
          </mxGeometry>
        </mxCell>
        <mxCell id="-mpe2I_DCxZ04XdZVAOM-3" value="2.1.p3.c1" style="verticalLabelPosition=bottom;verticalAlign=top;html=1;shape=hexagon;perimeter=hexagonPerimeter2;arcSize=6;size=0.27;fillColor=#999999;fontSize=6;" parent="1" vertex="1">
          <mxGeometry x="820" y="674" width="10" height="10" as="geometry" />
        </mxCell>
        <mxCell id="-mpe2I_DCxZ04XdZVAOM-10" style="edgeStyle=orthogonalEdgeStyle;rounded=0;orthogonalLoop=1;jettySize=auto;html=1;fontFamily=Verdana;fontSize=18;startArrow=classic;startFill=1;endArrow=classic;endFill=1;strokeColor=#FF8000;fillColor=#FF66FF;" parent="1" edge="1">
          <mxGeometry relative="1" as="geometry">
            <mxPoint x="1208.71" y="661" as="targetPoint" />
            <mxPoint x="1208.71" y="483" as="sourcePoint" />
          </mxGeometry>
        </mxCell>
        <mxCell id="-mpe2I_DCxZ04XdZVAOM-11" value="" style="endArrow=none;dashed=1;html=1;rounded=0;fontFamily=Verdana;fontSize=16;" parent="1" edge="1">
          <mxGeometry width="50" height="50" relative="1" as="geometry">
            <mxPoint x="1085" y="447" as="sourcePoint" />
            <mxPoint x="1208" y="469" as="targetPoint" />
            <Array as="points">
              <mxPoint x="1085" y="510" />
              <mxPoint x="1207.71" y="510" />
            </Array>
          </mxGeometry>
        </mxCell>
        <mxCell id="-mpe2I_DCxZ04XdZVAOM-12" value="arreglar errorxxxx" style="edgeLabel;html=1;align=center;verticalAlign=middle;resizable=0;points=[];fontSize=10;fontFamily=Verdana;" parent="-mpe2I_DCxZ04XdZVAOM-11" vertex="1" connectable="0">
          <mxGeometry x="-0.1256" y="-1" relative="1" as="geometry">
            <mxPoint x="27" y="6" as="offset" />
          </mxGeometry>
        </mxCell>
        <mxCell id="-mpe2I_DCxZ04XdZVAOM-13" style="edgeStyle=orthogonalEdgeStyle;rounded=0;orthogonalLoop=1;jettySize=auto;html=1;fontFamily=Verdana;fontSize=18;startArrow=classic;startFill=1;endArrow=classic;endFill=1;strokeColor=#FF8000;fillColor=#FF66FF;" parent="1" edge="1">
          <mxGeometry relative="1" as="geometry">
            <mxPoint x="1350.7100000000003" y="653" as="targetPoint" />
            <mxPoint x="1350.7100000000003" y="475" as="sourcePoint" />
          </mxGeometry>
        </mxCell>
        <mxCell id="-mpe2I_DCxZ04XdZVAOM-14" value="" style="endArrow=none;dashed=1;html=1;rounded=0;fontFamily=Verdana;fontSize=16;" parent="1" edge="1">
          <mxGeometry width="50" height="50" relative="1" as="geometry">
            <mxPoint x="1273" y="442" as="sourcePoint" />
            <mxPoint x="1350" y="466" as="targetPoint" />
            <Array as="points">
              <mxPoint x="1275" y="502" />
              <mxPoint x="1349.71" y="502" />
            </Array>
          </mxGeometry>
        </mxCell>
        <mxCell id="-mpe2I_DCxZ04XdZVAOM-15" value="arreglar errorxxxx" style="edgeLabel;html=1;align=center;verticalAlign=middle;resizable=0;points=[];fontSize=10;fontFamily=Verdana;" parent="-mpe2I_DCxZ04XdZVAOM-14" vertex="1" connectable="0">
          <mxGeometry x="-0.1256" y="-1" relative="1" as="geometry">
            <mxPoint x="27" y="6" as="offset" />
          </mxGeometry>
        </mxCell>
        <mxCell id="-mpe2I_DCxZ04XdZVAOM-16" value="1.5.p1.c1" style="verticalLabelPosition=bottom;verticalAlign=top;html=1;shape=hexagon;perimeter=hexagonPerimeter2;arcSize=6;size=0.27;fillColor=#999999;fontSize=6;" parent="1" vertex="1">
          <mxGeometry x="1268" y="415" width="10" height="10" as="geometry" />
        </mxCell>
        <mxCell id="-mpe2I_DCxZ04XdZVAOM-17" value="1.5.p1.c1" style="verticalLabelPosition=bottom;verticalAlign=top;html=1;shape=hexagon;perimeter=hexagonPerimeter2;arcSize=6;size=0.27;fillColor=#999999;fontSize=6;" parent="1" vertex="1">
          <mxGeometry x="1215" y="415" width="10" height="10" as="geometry" />
        </mxCell>
        <mxCell id="-mpe2I_DCxZ04XdZVAOM-18" style="edgeStyle=orthogonalEdgeStyle;rounded=0;orthogonalLoop=1;jettySize=auto;html=1;fontFamily=Verdana;fontSize=18;startArrow=classic;startFill=1;endArrow=classic;endFill=1;strokeColor=#FF8000;fillColor=#FF66FF;" parent="1" edge="1">
          <mxGeometry relative="1" as="geometry">
            <mxPoint x="1908" y="660" as="targetPoint" />
            <mxPoint x="1907.7100000000003" y="264" as="sourcePoint" />
            <Array as="points">
              <mxPoint x="1908" y="370" />
              <mxPoint x="1908" y="370" />
            </Array>
          </mxGeometry>
        </mxCell>
        <mxCell id="-mpe2I_DCxZ04XdZVAOM-19" value="" style="endArrow=none;dashed=1;html=1;rounded=0;fontFamily=Verdana;fontSize=16;" parent="1" edge="1">
          <mxGeometry width="50" height="50" relative="1" as="geometry">
            <mxPoint x="1784" y="228" as="sourcePoint" />
            <mxPoint x="1907" y="250" as="targetPoint" />
            <Array as="points">
              <mxPoint x="1784" y="291" />
              <mxPoint x="1906.71" y="291" />
            </Array>
          </mxGeometry>
        </mxCell>
        <mxCell id="-mpe2I_DCxZ04XdZVAOM-20" value="arreglar errorxxxx" style="edgeLabel;html=1;align=center;verticalAlign=middle;resizable=0;points=[];fontSize=10;fontFamily=Verdana;" parent="-mpe2I_DCxZ04XdZVAOM-19" vertex="1" connectable="0">
          <mxGeometry x="-0.1256" y="-1" relative="1" as="geometry">
            <mxPoint x="27" y="6" as="offset" />
          </mxGeometry>
        </mxCell>
        <mxCell id="-mpe2I_DCxZ04XdZVAOM-21" style="edgeStyle=orthogonalEdgeStyle;rounded=0;orthogonalLoop=1;jettySize=auto;html=1;fontFamily=Verdana;fontSize=18;startArrow=classic;startFill=1;endArrow=classic;endFill=1;strokeColor=#FF8000;fillColor=#FF66FF;" parent="1" edge="1">
          <mxGeometry relative="1" as="geometry">
            <mxPoint x="2052" y="660" as="targetPoint" />
            <mxPoint x="2051.71" y="270" as="sourcePoint" />
            <Array as="points">
              <mxPoint x="2052" y="370" />
              <mxPoint x="2052" y="370" />
            </Array>
          </mxGeometry>
        </mxCell>
        <mxCell id="-mpe2I_DCxZ04XdZVAOM-22" value="" style="endArrow=none;dashed=1;html=1;rounded=0;fontFamily=Verdana;fontSize=16;" parent="1" edge="1">
          <mxGeometry width="50" height="50" relative="1" as="geometry">
            <mxPoint x="1973" y="234" as="sourcePoint" />
            <mxPoint x="2051" y="256" as="targetPoint" />
            <Array as="points">
              <mxPoint x="1974" y="295" />
              <mxPoint x="2050.71" y="297" />
            </Array>
          </mxGeometry>
        </mxCell>
        <mxCell id="-mpe2I_DCxZ04XdZVAOM-23" value="arreglar errorxxxx" style="edgeLabel;html=1;align=center;verticalAlign=middle;resizable=0;points=[];fontSize=10;fontFamily=Verdana;" parent="-mpe2I_DCxZ04XdZVAOM-22" vertex="1" connectable="0">
          <mxGeometry x="-0.1256" y="-1" relative="1" as="geometry">
            <mxPoint x="27" y="6" as="offset" />
          </mxGeometry>
        </mxCell>
        <mxCell id="-mpe2I_DCxZ04XdZVAOM-25" value="" style="endArrow=none;dashed=1;html=1;rounded=0;fontFamily=Verdana;fontSize=16;" parent="1" edge="1">
          <mxGeometry width="50" height="50" relative="1" as="geometry">
            <mxPoint x="2274" y="225" as="sourcePoint" />
            <mxPoint x="2397" y="247" as="targetPoint" />
            <Array as="points">
              <mxPoint x="2274" y="288" />
              <mxPoint x="2396.71" y="288" />
            </Array>
          </mxGeometry>
        </mxCell>
        <mxCell id="-mpe2I_DCxZ04XdZVAOM-26" value="arreglar errorxxxx" style="edgeLabel;html=1;align=center;verticalAlign=middle;resizable=0;points=[];fontSize=10;fontFamily=Verdana;" parent="-mpe2I_DCxZ04XdZVAOM-25" vertex="1" connectable="0">
          <mxGeometry x="-0.1256" y="-1" relative="1" as="geometry">
            <mxPoint x="27" y="6" as="offset" />
          </mxGeometry>
        </mxCell>
        <mxCell id="-mpe2I_DCxZ04XdZVAOM-27" style="edgeStyle=orthogonalEdgeStyle;rounded=0;orthogonalLoop=1;jettySize=auto;html=1;fontFamily=Verdana;fontSize=18;startArrow=classic;startFill=1;endArrow=classic;endFill=1;strokeColor=#FF8000;fillColor=#FF66FF;" parent="1" edge="1">
          <mxGeometry relative="1" as="geometry">
            <mxPoint x="2560" y="660" as="targetPoint" />
            <mxPoint x="2559.71" y="264" as="sourcePoint" />
            <Array as="points">
              <mxPoint x="2560" y="370" />
              <mxPoint x="2560" y="370" />
            </Array>
          </mxGeometry>
        </mxCell>
        <mxCell id="-mpe2I_DCxZ04XdZVAOM-28" value="" style="endArrow=none;dashed=1;html=1;rounded=0;fontFamily=Verdana;fontSize=16;" parent="1" edge="1">
          <mxGeometry width="50" height="50" relative="1" as="geometry">
            <mxPoint x="2436" y="228" as="sourcePoint" />
            <mxPoint x="2559" y="250" as="targetPoint" />
            <Array as="points">
              <mxPoint x="2436" y="291" />
              <mxPoint x="2558.71" y="291" />
            </Array>
          </mxGeometry>
        </mxCell>
        <mxCell id="-mpe2I_DCxZ04XdZVAOM-29" value="arreglar errorxxxx" style="edgeLabel;html=1;align=center;verticalAlign=middle;resizable=0;points=[];fontSize=10;fontFamily=Verdana;" parent="-mpe2I_DCxZ04XdZVAOM-28" vertex="1" connectable="0">
          <mxGeometry x="-0.1256" y="-1" relative="1" as="geometry">
            <mxPoint x="27" y="6" as="offset" />
          </mxGeometry>
        </mxCell>
        <mxCell id="-mpe2I_DCxZ04XdZVAOM-30" style="edgeStyle=orthogonalEdgeStyle;rounded=0;orthogonalLoop=1;jettySize=auto;html=1;fontFamily=Verdana;fontSize=18;startArrow=classic;startFill=1;endArrow=classic;endFill=1;strokeColor=#FF8000;fillColor=#FF66FF;" parent="1" edge="1">
          <mxGeometry relative="1" as="geometry">
            <mxPoint x="3184" y="660" as="targetPoint" />
            <mxPoint x="3183.71" y="266" as="sourcePoint" />
            <Array as="points">
              <mxPoint x="3184" y="370" />
              <mxPoint x="3184" y="370" />
            </Array>
          </mxGeometry>
        </mxCell>
        <mxCell id="-mpe2I_DCxZ04XdZVAOM-31" value="" style="endArrow=none;dashed=1;html=1;rounded=0;fontFamily=Verdana;fontSize=16;" parent="1" edge="1">
          <mxGeometry width="50" height="50" relative="1" as="geometry">
            <mxPoint x="2997" y="225" as="sourcePoint" />
            <mxPoint x="3183" y="252" as="targetPoint" />
            <Array as="points">
              <mxPoint x="2998" y="293" />
              <mxPoint x="3182.71" y="293" />
            </Array>
          </mxGeometry>
        </mxCell>
        <mxCell id="-mpe2I_DCxZ04XdZVAOM-32" value="arreglar errorxxxx" style="edgeLabel;html=1;align=center;verticalAlign=middle;resizable=0;points=[];fontSize=10;fontFamily=Verdana;" parent="-mpe2I_DCxZ04XdZVAOM-31" vertex="1" connectable="0">
          <mxGeometry x="-0.1256" y="-1" relative="1" as="geometry">
            <mxPoint x="27" y="6" as="offset" />
          </mxGeometry>
        </mxCell>
        <mxCell id="-mpe2I_DCxZ04XdZVAOM-33" style="edgeStyle=orthogonalEdgeStyle;rounded=0;orthogonalLoop=1;jettySize=auto;html=1;fontFamily=Verdana;fontSize=18;startArrow=classic;startFill=1;endArrow=classic;endFill=1;strokeColor=#FF8000;fillColor=#FF66FF;" parent="1" edge="1">
          <mxGeometry relative="1" as="geometry">
            <mxPoint x="3484" y="660" as="targetPoint" />
            <mxPoint x="3483.71" y="261" as="sourcePoint" />
            <Array as="points">
              <mxPoint x="3484" y="370" />
              <mxPoint x="3484" y="370" />
            </Array>
          </mxGeometry>
        </mxCell>
        <mxCell id="-mpe2I_DCxZ04XdZVAOM-34" value="" style="endArrow=none;dashed=1;html=1;rounded=0;fontFamily=Verdana;fontSize=16;" parent="1" edge="1">
          <mxGeometry width="50" height="50" relative="1" as="geometry">
            <mxPoint x="3360" y="225" as="sourcePoint" />
            <mxPoint x="3483" y="247" as="targetPoint" />
            <Array as="points">
              <mxPoint x="3360" y="288" />
              <mxPoint x="3482.71" y="288" />
            </Array>
          </mxGeometry>
        </mxCell>
        <mxCell id="-mpe2I_DCxZ04XdZVAOM-35" value="arreglar errorxxxx" style="edgeLabel;html=1;align=center;verticalAlign=middle;resizable=0;points=[];fontSize=10;fontFamily=Verdana;" parent="-mpe2I_DCxZ04XdZVAOM-34" vertex="1" connectable="0">
          <mxGeometry x="-0.1256" y="-1" relative="1" as="geometry">
            <mxPoint x="27" y="6" as="offset" />
          </mxGeometry>
        </mxCell>
        <mxCell id="-mpe2I_DCxZ04XdZVAOM-36" style="edgeStyle=orthogonalEdgeStyle;rounded=0;orthogonalLoop=1;jettySize=auto;html=1;fontFamily=Verdana;fontSize=18;startArrow=classic;startFill=1;endArrow=classic;endFill=1;strokeColor=#FF8000;fillColor=#FF66FF;" parent="1" edge="1">
          <mxGeometry relative="1" as="geometry">
            <mxPoint x="3625" y="660" as="targetPoint" />
            <mxPoint x="3624.71" y="261" as="sourcePoint" />
            <Array as="points">
              <mxPoint x="3625" y="660" />
            </Array>
          </mxGeometry>
        </mxCell>
        <mxCell id="-mpe2I_DCxZ04XdZVAOM-37" value="" style="endArrow=none;dashed=1;html=1;rounded=0;fontFamily=Verdana;fontSize=16;" parent="1" edge="1">
          <mxGeometry width="50" height="50" relative="1" as="geometry">
            <mxPoint x="3560" y="230" as="sourcePoint" />
            <mxPoint x="3624" y="247" as="targetPoint" />
            <Array as="points">
              <mxPoint x="3560" y="288" />
              <mxPoint x="3623.71" y="288" />
            </Array>
          </mxGeometry>
        </mxCell>
        <mxCell id="-mpe2I_DCxZ04XdZVAOM-38" value="arreglar errorxxxx" style="edgeLabel;html=1;align=center;verticalAlign=middle;resizable=0;points=[];fontSize=10;fontFamily=Verdana;" parent="-mpe2I_DCxZ04XdZVAOM-37" vertex="1" connectable="0">
          <mxGeometry x="-0.1256" y="-1" relative="1" as="geometry">
            <mxPoint x="27" y="6" as="offset" />
          </mxGeometry>
        </mxCell>
        <mxCell id="-mpe2I_DCxZ04XdZVAOM-39" style="edgeStyle=orthogonalEdgeStyle;rounded=0;orthogonalLoop=1;jettySize=auto;html=1;fontFamily=Verdana;fontSize=18;startArrow=classic;startFill=1;endArrow=classic;endFill=1;strokeColor=#FF8000;fillColor=#FF66FF;" parent="1" edge="1">
          <mxGeometry relative="1" as="geometry">
            <mxPoint x="3928" y="660" as="targetPoint" />
            <mxPoint x="3927.57" y="261" as="sourcePoint" />
            <Array as="points">
              <mxPoint x="3928" y="360" />
              <mxPoint x="3928" y="360" />
            </Array>
          </mxGeometry>
        </mxCell>
        <mxCell id="-mpe2I_DCxZ04XdZVAOM-40" value="" style="endArrow=none;dashed=1;html=1;rounded=0;fontFamily=Verdana;fontSize=16;" parent="1" edge="1">
          <mxGeometry width="50" height="50" relative="1" as="geometry">
            <mxPoint x="3847" y="227" as="sourcePoint" />
            <mxPoint x="3926.86" y="247" as="targetPoint" />
            <Array as="points">
              <mxPoint x="3846" y="286" />
              <mxPoint x="3926.57" y="288" />
            </Array>
          </mxGeometry>
        </mxCell>
        <mxCell id="-mpe2I_DCxZ04XdZVAOM-41" value="arreglar errorxxxx" style="edgeLabel;html=1;align=center;verticalAlign=middle;resizable=0;points=[];fontSize=10;fontFamily=Verdana;" parent="-mpe2I_DCxZ04XdZVAOM-40" vertex="1" connectable="0">
          <mxGeometry x="-0.1256" y="-1" relative="1" as="geometry">
            <mxPoint x="27" y="6" as="offset" />
          </mxGeometry>
        </mxCell>
        <mxCell id="-mpe2I_DCxZ04XdZVAOM-42" style="edgeStyle=orthogonalEdgeStyle;rounded=0;orthogonalLoop=1;jettySize=auto;html=1;fontFamily=Verdana;fontSize=18;startArrow=classic;startFill=1;endArrow=classic;endFill=1;strokeColor=#FF8000;fillColor=#FF66FF;" parent="1" edge="1">
          <mxGeometry relative="1" as="geometry">
            <mxPoint x="4783" y="660" as="targetPoint" />
            <mxPoint x="4782.71" y="116" as="sourcePoint" />
            <Array as="points">
              <mxPoint x="4783" y="250" />
              <mxPoint x="4783" y="250" />
            </Array>
          </mxGeometry>
        </mxCell>
        <mxCell id="-mpe2I_DCxZ04XdZVAOM-43" value="" style="endArrow=none;dashed=1;html=1;rounded=0;fontFamily=Verdana;fontSize=16;" parent="1" edge="1">
          <mxGeometry width="50" height="50" relative="1" as="geometry">
            <mxPoint x="4659.000000000001" y="80" as="sourcePoint" />
            <mxPoint x="4782.000000000001" y="102" as="targetPoint" />
            <Array as="points">
              <mxPoint x="4659" y="143" />
              <mxPoint x="4781.71" y="143" />
            </Array>
          </mxGeometry>
        </mxCell>
        <mxCell id="-mpe2I_DCxZ04XdZVAOM-44" value="arreglar errorxxxx" style="edgeLabel;html=1;align=center;verticalAlign=middle;resizable=0;points=[];fontSize=10;fontFamily=Verdana;" parent="-mpe2I_DCxZ04XdZVAOM-43" vertex="1" connectable="0">
          <mxGeometry x="-0.1256" y="-1" relative="1" as="geometry">
            <mxPoint x="27" y="6" as="offset" />
          </mxGeometry>
        </mxCell>
        <mxCell id="-mpe2I_DCxZ04XdZVAOM-45" style="edgeStyle=orthogonalEdgeStyle;rounded=0;orthogonalLoop=1;jettySize=auto;html=1;fontFamily=Verdana;fontSize=18;startArrow=classic;startFill=1;endArrow=classic;endFill=1;strokeColor=#FF8000;fillColor=#FF66FF;" parent="1" edge="1">
          <mxGeometry relative="1" as="geometry">
            <mxPoint x="2398.8" y="665" as="targetPoint" />
            <mxPoint x="2398.51" y="269" as="sourcePoint" />
            <Array as="points">
              <mxPoint x="2398.8" y="375" />
              <mxPoint x="2398.8" y="375" />
            </Array>
          </mxGeometry>
        </mxCell>
        <mxCell id="-mpe2I_DCxZ04XdZVAOM-47" value="etc, etc," style="text;html=1;resizable=0;autosize=1;align=center;verticalAlign=middle;points=[];fillColor=none;strokeColor=none;rounded=0;" parent="1" vertex="1">
          <mxGeometry x="4970" y="80" width="60" height="20" as="geometry" />
        </mxCell>
        <mxCell id="v_ekIITr6GWUN78T0YjD-2" value="" style="endArrow=classic;html=1;rounded=0;fontFamily=Verdana;fontSize=11;strokeColor=#FF8000;" parent="1" edge="1">
          <mxGeometry width="50" height="50" relative="1" as="geometry">
            <mxPoint x="2710" y="620" as="sourcePoint" />
            <mxPoint x="2710" y="665" as="targetPoint" />
          </mxGeometry>
        </mxCell>
        <mxCell id="v_ekIITr6GWUN78T0YjD-4" value="4.1p10&lt;br&gt;(4.1.p10.c0)" style="verticalLabelPosition=bottom;verticalAlign=top;html=1;shape=hexagon;perimeter=hexagonPerimeter2;arcSize=6;size=0.27;fillColor=#4D4D4D;" parent="1" vertex="1">
          <mxGeometry x="4830" y="669.5" width="20" height="20" as="geometry" />
        </mxCell>
        <mxCell id="v_ekIITr6GWUN78T0YjD-5" value="4.1.p11.c1" style="verticalLabelPosition=bottom;verticalAlign=top;html=1;shape=hexagon;perimeter=hexagonPerimeter2;arcSize=6;size=0.27;fillColor=#999999;fontSize=6;" parent="1" vertex="1">
          <mxGeometry x="4850" y="674.5" width="10" height="10" as="geometry" />
        </mxCell>
        <mxCell id="v_ekIITr6GWUN78T0YjD-6" value="4.1p11&lt;br&gt;(4.1p11.c0)" style="verticalLabelPosition=bottom;verticalAlign=top;html=1;shape=hexagon;perimeter=hexagonPerimeter2;arcSize=6;size=0.27;fillColor=#4D4D4D;" parent="1" vertex="1">
          <mxGeometry x="4896" y="669.5" width="20" height="20" as="geometry" />
        </mxCell>
        <mxCell id="v_ekIITr6GWUN78T0YjD-7" value="4.1.p12.c1" style="verticalLabelPosition=bottom;verticalAlign=top;html=1;shape=hexagon;perimeter=hexagonPerimeter2;arcSize=6;size=0.27;fillColor=#999999;fontSize=6;" parent="1" vertex="1">
          <mxGeometry x="4916" y="674.5" width="10" height="10" as="geometry" />
        </mxCell>
        <mxCell id="v_ekIITr6GWUN78T0YjD-8" value="2.2.p1" style="verticalLabelPosition=bottom;verticalAlign=top;html=1;shape=hexagon;perimeter=hexagonPerimeter2;arcSize=6;size=0.27;fillColor=#FF8000;" parent="1" vertex="1">
          <mxGeometry x="1860" y="205" width="20" height="20" as="geometry" />
        </mxCell>
        <mxCell id="v_ekIITr6GWUN78T0YjD-9" value="2.2.p2.c1" style="verticalLabelPosition=bottom;verticalAlign=top;html=1;shape=hexagon;perimeter=hexagonPerimeter2;arcSize=6;size=0.27;fillColor=#999999;fontSize=6;" parent="1" vertex="1">
          <mxGeometry x="1880" y="210.5" width="10" height="10" as="geometry" />
        </mxCell>
        <mxCell id="v_ekIITr6GWUN78T0YjD-10" value="" style="endArrow=classic;html=1;rounded=0;fontFamily=Verdana;fontSize=11;strokeColor=#FF8000;" parent="1" edge="1">
          <mxGeometry x="-0.3333" y="-35" width="50" height="50" relative="1" as="geometry">
            <mxPoint x="1784.71" y="158" as="sourcePoint" />
            <mxPoint x="1784.71" y="203" as="targetPoint" />
            <mxPoint as="offset" />
          </mxGeometry>
        </mxCell>
        <mxCell id="v_ekIITr6GWUN78T0YjD-13" value="2.2.p1.c1" style="verticalLabelPosition=bottom;verticalAlign=top;html=1;shape=hexagon;perimeter=hexagonPerimeter2;arcSize=6;size=0.27;fillColor=#999999;fontSize=6;" parent="1" vertex="1">
          <mxGeometry x="1720" y="210" width="10" height="10" as="geometry" />
        </mxCell>
        <mxCell id="v_ekIITr6GWUN78T0YjD-14" value="2.3.p1.c1" style="verticalLabelPosition=bottom;verticalAlign=top;html=1;shape=hexagon;perimeter=hexagonPerimeter2;arcSize=6;size=0.27;fillColor=#999999;fontSize=6;" parent="1" vertex="1">
          <mxGeometry x="1920" y="210" width="10" height="10" as="geometry" />
        </mxCell>
        <mxCell id="v_ekIITr6GWUN78T0YjD-15" value="" style="endArrow=classic;html=1;rounded=0;fontFamily=Verdana;fontSize=11;strokeColor=#FF8000;" parent="1" edge="1">
          <mxGeometry x="-0.3333" y="-35" width="50" height="50" relative="1" as="geometry">
            <mxPoint x="1973" y="158" as="sourcePoint" />
            <mxPoint x="1973" y="203" as="targetPoint" />
            <mxPoint as="offset" />
          </mxGeometry>
        </mxCell>
        <mxCell id="v_ekIITr6GWUN78T0YjD-16" value="2.3.p1" style="verticalLabelPosition=bottom;verticalAlign=top;html=1;shape=hexagon;perimeter=hexagonPerimeter2;arcSize=6;size=0.27;fillColor=#FF8000;" parent="1" vertex="1">
          <mxGeometry x="2003" y="205.5" width="20" height="20" as="geometry" />
        </mxCell>
        <mxCell id="v_ekIITr6GWUN78T0YjD-17" value="2.3.p2.c1" style="verticalLabelPosition=bottom;verticalAlign=top;html=1;shape=hexagon;perimeter=hexagonPerimeter2;arcSize=6;size=0.27;fillColor=#999999;fontSize=6;" parent="1" vertex="1">
          <mxGeometry x="2023" y="211" width="10" height="10" as="geometry" />
        </mxCell>
        <mxCell id="v_ekIITr6GWUN78T0YjD-18" value="2.4.p1.c1" style="verticalLabelPosition=bottom;verticalAlign=top;html=1;shape=hexagon;perimeter=hexagonPerimeter2;arcSize=6;size=0.27;fillColor=#999999;fontSize=6;" parent="1" vertex="1">
          <mxGeometry x="2060" y="210.5" width="10" height="10" as="geometry" />
        </mxCell>
        <mxCell id="v_ekIITr6GWUN78T0YjD-19" value="2.4.p1" style="verticalLabelPosition=bottom;verticalAlign=top;html=1;shape=hexagon;perimeter=hexagonPerimeter2;arcSize=6;size=0.27;fillColor=#FF8000;" parent="1" vertex="1">
          <mxGeometry x="2285" y="205" width="20" height="20" as="geometry" />
        </mxCell>
        <mxCell id="v_ekIITr6GWUN78T0YjD-20" value="2.4.p2.c1" style="verticalLabelPosition=bottom;verticalAlign=top;html=1;shape=hexagon;perimeter=hexagonPerimeter2;arcSize=6;size=0.27;fillColor=#999999;fontSize=6;" parent="1" vertex="1">
          <mxGeometry x="2305" y="210.5" width="10" height="10" as="geometry" />
        </mxCell>
        <mxCell id="v_ekIITr6GWUN78T0YjD-21" value="2.4.p2" style="verticalLabelPosition=bottom;verticalAlign=top;html=1;shape=hexagon;perimeter=hexagonPerimeter2;arcSize=6;size=0.27;fillColor=#FF8000;" parent="1" vertex="1">
          <mxGeometry x="2344" y="206" width="20" height="20" as="geometry" />
        </mxCell>
        <mxCell id="v_ekIITr6GWUN78T0YjD-22" value="2.4.p3.c1" style="verticalLabelPosition=bottom;verticalAlign=top;html=1;shape=hexagon;perimeter=hexagonPerimeter2;arcSize=6;size=0.27;fillColor=#999999;fontSize=6;" parent="1" vertex="1">
          <mxGeometry x="2364" y="211.5" width="10" height="10" as="geometry" />
        </mxCell>
        <mxCell id="v_ekIITr6GWUN78T0YjD-23" value="2.5.p1" style="verticalLabelPosition=bottom;verticalAlign=top;html=1;shape=hexagon;perimeter=hexagonPerimeter2;arcSize=6;size=0.27;fillColor=#FF8000;" parent="1" vertex="1">
          <mxGeometry x="2507" y="205" width="20" height="20" as="geometry" />
        </mxCell>
        <mxCell id="v_ekIITr6GWUN78T0YjD-24" value="2.5.p2.c1" style="verticalLabelPosition=bottom;verticalAlign=top;html=1;shape=hexagon;perimeter=hexagonPerimeter2;arcSize=6;size=0.27;fillColor=#999999;fontSize=6;" parent="1" vertex="1">
          <mxGeometry x="2527" y="210.5" width="10" height="10" as="geometry" />
        </mxCell>
        <mxCell id="v_ekIITr6GWUN78T0YjD-25" value="2.5.p1.c1" style="verticalLabelPosition=bottom;verticalAlign=top;html=1;shape=hexagon;perimeter=hexagonPerimeter2;arcSize=6;size=0.27;fillColor=#999999;fontSize=6;" parent="1" vertex="1">
          <mxGeometry x="2409" y="210" width="10" height="10" as="geometry" />
        </mxCell>
        <mxCell id="v_ekIITr6GWUN78T0YjD-26" value="2.6.p1.c1" style="verticalLabelPosition=bottom;verticalAlign=top;html=1;shape=hexagon;perimeter=hexagonPerimeter2;arcSize=6;size=0.27;fillColor=#999999;fontSize=6;" parent="1" vertex="1">
          <mxGeometry x="2570" y="210" width="10" height="10" as="geometry" />
        </mxCell>
        <mxCell id="v_ekIITr6GWUN78T0YjD-27" value="2.6.p1" style="verticalLabelPosition=bottom;verticalAlign=top;html=1;shape=hexagon;perimeter=hexagonPerimeter2;arcSize=6;size=0.27;fillColor=#FF8000;" parent="1" vertex="1">
          <mxGeometry x="3060" y="205" width="20" height="20" as="geometry" />
        </mxCell>
        <mxCell id="v_ekIITr6GWUN78T0YjD-28" value="2.6.p2.c1" style="verticalLabelPosition=bottom;verticalAlign=top;html=1;shape=hexagon;perimeter=hexagonPerimeter2;arcSize=6;size=0.27;fillColor=#999999;fontSize=6;" parent="1" vertex="1">
          <mxGeometry x="3080" y="210.5" width="10" height="10" as="geometry" />
        </mxCell>
        <mxCell id="v_ekIITr6GWUN78T0YjD-29" value="2.6.p2" style="verticalLabelPosition=bottom;verticalAlign=top;html=1;shape=hexagon;perimeter=hexagonPerimeter2;arcSize=6;size=0.27;fillColor=#FF8000;" parent="1" vertex="1">
          <mxGeometry x="3136" y="205" width="20" height="20" as="geometry" />
        </mxCell>
        <mxCell id="v_ekIITr6GWUN78T0YjD-30" value="2.6.p3.c1" style="verticalLabelPosition=bottom;verticalAlign=top;html=1;shape=hexagon;perimeter=hexagonPerimeter2;arcSize=6;size=0.27;fillColor=#999999;fontSize=6;" parent="1" vertex="1">
          <mxGeometry x="3156" y="210.5" width="10" height="10" as="geometry" />
        </mxCell>
        <mxCell id="v_ekIITr6GWUN78T0YjD-31" value="2.7.p1.c1" style="verticalLabelPosition=bottom;verticalAlign=top;html=1;shape=hexagon;perimeter=hexagonPerimeter2;arcSize=6;size=0.27;fillColor=#999999;fontSize=6;" parent="1" vertex="1">
          <mxGeometry x="3194" y="210" width="10" height="10" as="geometry" />
        </mxCell>
        <mxCell id="v_ekIITr6GWUN78T0YjD-32" value="2.7.p1" style="verticalLabelPosition=bottom;verticalAlign=top;html=1;shape=hexagon;perimeter=hexagonPerimeter2;arcSize=6;size=0.27;fillColor=#FF8000;" parent="1" vertex="1">
          <mxGeometry x="3437" y="205" width="20" height="20" as="geometry" />
        </mxCell>
        <mxCell id="v_ekIITr6GWUN78T0YjD-33" value="2.7.p2.c1" style="verticalLabelPosition=bottom;verticalAlign=top;html=1;shape=hexagon;perimeter=hexagonPerimeter2;arcSize=6;size=0.27;fillColor=#999999;fontSize=6;" parent="1" vertex="1">
          <mxGeometry x="3457" y="210.5" width="10" height="10" as="geometry" />
        </mxCell>
        <mxCell id="v_ekIITr6GWUN78T0YjD-34" value="2.8.p1.c1" style="verticalLabelPosition=bottom;verticalAlign=top;html=1;shape=hexagon;perimeter=hexagonPerimeter2;arcSize=6;size=0.27;fillColor=#999999;fontSize=6;" parent="1" vertex="1">
          <mxGeometry x="3493" y="210" width="10" height="10" as="geometry" />
        </mxCell>
        <mxCell id="v_ekIITr6GWUN78T0YjD-35" value="" style="endArrow=classic;html=1;rounded=0;fontFamily=Verdana;fontSize=11;strokeColor=#FF8000;" parent="1" edge="1">
          <mxGeometry x="0.5258" y="-26" width="50" height="50" relative="1" as="geometry">
            <mxPoint x="3359" y="155" as="sourcePoint" />
            <mxPoint x="3359" y="200" as="targetPoint" />
            <Array as="points">
              <mxPoint x="3359.5" y="200" />
            </Array>
            <mxPoint as="offset" />
          </mxGeometry>
        </mxCell>
        <mxCell id="v_ekIITr6GWUN78T0YjD-36" value="2.8.p1" style="verticalLabelPosition=bottom;verticalAlign=top;html=1;shape=hexagon;perimeter=hexagonPerimeter2;arcSize=6;size=0.27;fillColor=#FF8000;" parent="1" vertex="1">
          <mxGeometry x="3580" y="205" width="20" height="20" as="geometry" />
        </mxCell>
        <mxCell id="v_ekIITr6GWUN78T0YjD-37" value="2.8.p2.c1" style="verticalLabelPosition=bottom;verticalAlign=top;html=1;shape=hexagon;perimeter=hexagonPerimeter2;arcSize=6;size=0.27;fillColor=#999999;fontSize=6;" parent="1" vertex="1">
          <mxGeometry x="3600" y="210.5" width="10" height="10" as="geometry" />
        </mxCell>
        <mxCell id="v_ekIITr6GWUN78T0YjD-38" value="2.9.p1.c1" style="verticalLabelPosition=bottom;verticalAlign=top;html=1;shape=hexagon;perimeter=hexagonPerimeter2;arcSize=6;size=0.27;fillColor=#999999;fontSize=6;" parent="1" vertex="1">
          <mxGeometry x="3636" y="210" width="10" height="10" as="geometry" />
        </mxCell>
        <mxCell id="v_ekIITr6GWUN78T0YjD-39" value="2.9.p1" style="verticalLabelPosition=bottom;verticalAlign=top;html=1;shape=hexagon;perimeter=hexagonPerimeter2;arcSize=6;size=0.27;fillColor=#FF8000;" parent="1" vertex="1">
          <mxGeometry x="3882" y="205" width="20" height="20" as="geometry" />
        </mxCell>
        <mxCell id="v_ekIITr6GWUN78T0YjD-40" value="2.9.p2.c1" style="verticalLabelPosition=bottom;verticalAlign=top;html=1;shape=hexagon;perimeter=hexagonPerimeter2;arcSize=6;size=0.27;fillColor=#999999;fontSize=6;" parent="1" vertex="1">
          <mxGeometry x="3902" y="210.5" width="10" height="10" as="geometry" />
        </mxCell>
        <mxCell id="v_ekIITr6GWUN78T0YjD-41" value="2.10.p1.c1" style="verticalLabelPosition=bottom;verticalAlign=top;html=1;shape=hexagon;perimeter=hexagonPerimeter2;arcSize=6;size=0.27;fillColor=#999999;fontSize=6;" parent="1" vertex="1">
          <mxGeometry x="3938" y="210" width="10" height="10" as="geometry" />
        </mxCell>
        <mxCell id="v_ekIITr6GWUN78T0YjD-42" value="" style="endArrow=classic;html=1;rounded=0;fontFamily=Verdana;fontSize=11;strokeColor=#FF8000;" parent="1" edge="1">
          <mxGeometry x="0.5258" y="-26" width="50" height="50" relative="1" as="geometry">
            <mxPoint x="3847" y="155" as="sourcePoint" />
            <mxPoint x="3847" y="200" as="targetPoint" />
            <Array as="points">
              <mxPoint x="3847.5" y="200" />
            </Array>
            <mxPoint as="offset" />
          </mxGeometry>
        </mxCell>
        <mxCell id="v_ekIITr6GWUN78T0YjD-43" value="3.2.p1" style="verticalLabelPosition=bottom;verticalAlign=top;html=1;shape=hexagon;perimeter=hexagonPerimeter2;arcSize=6;size=0.27;fillColor=#FF8000;" parent="1" vertex="1">
          <mxGeometry x="4736" y="56.5" width="20" height="20" as="geometry" />
        </mxCell>
        <mxCell id="v_ekIITr6GWUN78T0YjD-44" value="3.2.p2.c1" style="verticalLabelPosition=bottom;verticalAlign=top;html=1;shape=hexagon;perimeter=hexagonPerimeter2;arcSize=6;size=0.27;fillColor=#999999;fontSize=6;" parent="1" vertex="1">
          <mxGeometry x="4756" y="62" width="10" height="10" as="geometry" />
        </mxCell>
        <mxCell id="v_ekIITr6GWUN78T0YjD-45" value="3.3.p1.c1" style="verticalLabelPosition=bottom;verticalAlign=top;html=1;shape=hexagon;perimeter=hexagonPerimeter2;arcSize=6;size=0.27;fillColor=#999999;fontSize=6;" parent="1" vertex="1">
          <mxGeometry x="4792" y="61.5" width="10" height="10" as="geometry" />
        </mxCell>
      </root>
    </mxGraphModel>
  </diagram>
</mxfile>
